<svg width="18" height="18" viewBox="0 0 18 18" fill="none" xmlns="http://www.w3.org/2000/svg">
<path d="M9.50488 6.5175L15.1996 13.0808L16.6171 11.6625L10.5316 5.5935L9.50488 6.5175Z" fill="#4B5661"/>
<path d="M10.0135 15.0415C10.0135 15.3682 9.8837 15.6815 9.65268 15.9125C9.42167 16.1435 9.10835 16.2733 8.78164 16.2733C8.45494 16.2733 8.14162 16.1435 7.9106 15.9125C7.67959 15.6815 7.5498 15.3682 7.5498 15.0415C7.5498 14.3612 8.1657 13.8097 8.7816 13.1938C9.3975 13.8097 10.0135 14.3612 10.0135 15.0415Z" fill="#FA6D62"/>
<path d="M8.7348 13.3279L1.125 5.73277L4.44356 2.41425C4.82943 2.0284 5.35268 1.81152 5.89836 1.81125C6.44404 1.81099 6.96751 2.02736 7.35375 2.41282L13.5078 8.55495L8.7348 13.3279Z" fill="#C8D1D4"/>
<path d="M2.73092 4.12687L1.125 5.73285L8.7348 13.3279L10.3439 11.7188C10.3439 11.7188 8.87408 11.638 8.46098 11.2031C8.01562 10.7344 8.51565 9.81247 8.03865 9.35197C7.54575 8.8761 6.23438 9.06247 5.78906 8.6016C5.40139 8.20027 5.67806 7.0407 5.15584 6.53947C4.59375 6 3.4636 6.34845 3.02344 5.85937C2.72049 5.33594 2.61663 4.72076 2.73092 4.12687Z" fill="#FA6D62"/>
</svg>
