<svg width="24" height="24" viewBox="0 0 24 24" fill="none" xmlns="http://www.w3.org/2000/svg">
<path d="M12.3232 8.03613L11.0049 7.32129C11.3032 6.68797 11.3807 5.97297 11.2252 5.29042C11.0696 4.60787 10.6898 3.99712 10.1465 3.55566L11.1533 2.44434C11.9467 3.1105 12.4933 4.02386 12.7054 5.03788C12.9176 6.05189 12.783 7.10778 12.3232 8.03613Z" fill="#C78657"/>
<path d="M7.125 6H6.875C4.1826 6 2 9.35785 2 13.5C2 17.6421 4.1826 21 6.875 21H7.125C9.8174 21 12 17.6422 12 13.5C12 9.3578 9.8174 6 7.125 6Z" fill="#FFAB66"/>
<path d="M17.125 6H16.875C14.1826 6 12 9.35785 12 13.5C12 17.6421 14.1826 21 16.875 21H17.125C19.8174 21 22 17.6422 22 13.5C22 9.3578 19.8174 6 17.125 6Z" fill="#FFAB66"/>
<path d="M12.0758 6H11.9242C9.20465 6 7 9.35785 7 13.5C7 17.6421 9.20465 21 11.9242 21H12.0758C14.7954 21 17 17.6422 17 13.5C17 9.3578 14.7954 6 12.0758 6Z" fill="#FFAB66"/>
<path d="M10 12H5L6 9L10 12Z" fill="black"/>
<path d="M14 12H19L18 9L14 12Z" fill="black"/>
<path d="M13.5 14H10.5L12 12L13.5 14Z" fill="black"/>
<path d="M15.111 17.828L12 16.791L8.88898 17.828L5.58398 15.624L6.41598 14.376L9.11098 16.172L12 15.209L14.889 16.172L17.584 14.376L18.416 15.624L15.111 17.828Z" fill="black"/>
</svg>
