<svg width="90" height="90" viewBox="0 0 90 90" fill="none" xmlns="http://www.w3.org/2000/svg">
<rect width="90" height="90" rx="45" fill="#007CEE"/>
<path d="M35.05 61.4C34.0167 61.4 33.2167 61.1167 32.65 60.55C32.1167 59.95 31.85 59.1333 31.85 58.1V29C31.85 27.9333 32.1333 27.1333 32.7 26.6C33.2667 26.0333 34.0667 25.75 35.1 25.75H47.15C51.0167 25.75 54 26.6833 56.1 28.55C58.2 30.3833 59.25 32.9667 59.25 36.3C59.25 38.4667 58.7667 40.3333 57.8 41.9C56.8667 43.4667 55.5 44.6667 53.7 45.5C51.9 46.3333 49.7167 46.75 47.15 46.75L47.6 46H49.25C50.6167 46 51.8 46.3333 52.8 47C53.8333 47.6667 54.7333 48.7167 55.5 50.15L59.25 57.1C59.65 57.8 59.8333 58.4833 59.8 59.15C59.7667 59.8167 59.5167 60.3667 59.05 60.8C58.5833 61.2 57.9 61.4 57 61.4C56.1 61.4 55.3667 61.2167 54.8 60.85C54.2333 60.45 53.7333 59.85 53.3 59.05L48.25 49.75C47.65 48.6167 46.9333 47.8667 46.1 47.5C45.3 47.1 44.2667 46.9 43 46.9H38.25V58.1C38.25 59.1333 37.9833 59.95 37.45 60.55C36.9167 61.1167 36.1167 61.4 35.05 61.4ZM38.25 42.15H46.05C48.35 42.15 50.0833 41.6833 51.25 40.75C52.45 39.7833 53.05 38.35 53.05 36.45C53.05 34.5833 52.45 33.1833 51.25 32.25C50.0833 31.2833 48.35 30.8 46.05 30.8H38.25V42.15Z" fill="white"/>
</svg>
