<svg width="87" height="24" viewBox="0 0 87 24" fill="none" xmlns="http://www.w3.org/2000/svg">
<path d="M2.512 23.256C1.85067 23.256 1.33867 23.0747 0.976 22.712C0.634667 22.328 0.464 21.8053 0.464 21.144V2.52C0.464 1.83733 0.645334 1.32533 1.008 0.983999C1.37067 0.621332 1.88267 0.439999 2.544 0.439999H10.256C12.7307 0.439999 14.64 1.03733 15.984 2.232C17.328 3.40533 18 5.05867 18 7.192C18 8.57867 17.6907 9.77333 17.072 10.776C16.4747 11.7787 15.6 12.5467 14.448 13.08C13.296 13.6133 11.8987 13.88 10.256 13.88L10.544 13.4H11.6C12.4747 13.4 13.232 13.6133 13.872 14.04C14.5333 14.4667 15.1093 15.1387 15.6 16.056L18 20.504C18.256 20.952 18.3733 21.3893 18.352 21.816C18.3307 22.2427 18.1707 22.5947 17.872 22.872C17.5733 23.128 17.136 23.256 16.56 23.256C15.984 23.256 15.5147 23.1387 15.152 22.904C14.7893 22.648 14.4693 22.264 14.192 21.752L10.96 15.8C10.576 15.0747 10.1173 14.5947 9.584 14.36C9.072 14.104 8.41067 13.976 7.6 13.976H4.56V21.144C4.56 21.8053 4.38933 22.328 4.048 22.712C3.70667 23.0747 3.19467 23.256 2.512 23.256ZM4.56 10.936H9.552C11.024 10.936 12.1333 10.6373 12.88 10.04C13.648 9.42133 14.032 8.504 14.032 7.288C14.032 6.09333 13.648 5.19733 12.88 4.6C12.1333 3.98133 11.024 3.672 9.552 3.672H4.56V10.936ZM29.3233 23.32C27.5526 23.32 26.0273 22.9893 24.7473 22.328C23.4673 21.6667 22.4753 20.728 21.7713 19.512C21.0886 18.296 20.7473 16.856 20.7473 15.192C20.7473 13.5707 21.0779 12.152 21.7393 10.936C22.4219 9.72 23.3499 8.77067 24.5233 8.088C25.7179 7.384 27.0726 7.032 28.5873 7.032C29.6966 7.032 30.6886 7.21333 31.5633 7.576C32.4593 7.93867 33.2166 8.46133 33.8353 9.144C34.4753 9.82667 34.9553 10.6587 35.2753 11.64C35.6166 12.6 35.7873 13.688 35.7873 14.904C35.7873 15.288 35.6486 15.5867 35.3713 15.8C35.1153 15.992 34.7419 16.088 34.2513 16.088H23.9793V13.784H32.9713L32.4593 14.264C32.4593 13.2827 32.3099 12.4613 32.0113 11.8C31.7339 11.1387 31.3179 10.6373 30.7633 10.296C30.2299 9.93333 29.5579 9.752 28.7473 9.752C27.8513 9.752 27.0833 9.96533 26.4433 10.392C25.8246 10.7973 25.3446 11.384 25.0033 12.152C24.6833 12.8987 24.5233 13.7947 24.5233 14.84V15.064C24.5233 16.8133 24.9286 18.1253 25.7393 19C26.5713 19.8533 27.7873 20.28 29.3873 20.28C29.9419 20.28 30.5606 20.216 31.2433 20.088C31.9473 19.9387 32.6086 19.6933 33.2273 19.352C33.6753 19.096 34.0699 18.9893 34.4113 19.032C34.7526 19.0533 35.0193 19.1707 35.2113 19.384C35.4246 19.5973 35.5526 19.864 35.5953 20.184C35.6379 20.4827 35.5739 20.792 35.4033 21.112C35.2539 21.432 34.9873 21.7093 34.6033 21.944C33.8566 22.4133 32.9926 22.7653 32.0113 23C31.0513 23.2133 30.1553 23.32 29.3233 23.32ZM44.683 23.32C43.7657 23.32 42.795 23.224 41.771 23.032C40.747 22.84 39.8297 22.5093 39.019 22.04C38.6777 21.8267 38.4323 21.5813 38.283 21.304C38.155 21.0053 38.1017 20.7173 38.123 20.44C38.1657 20.1413 38.2723 19.8853 38.443 19.672C38.635 19.4587 38.8697 19.32 39.147 19.256C39.4457 19.192 39.7657 19.2453 40.107 19.416C40.9603 19.8213 41.7603 20.1093 42.507 20.28C43.2537 20.4293 43.9897 20.504 44.715 20.504C45.739 20.504 46.4963 20.3333 46.987 19.992C47.499 19.6293 47.755 19.16 47.755 18.584C47.755 18.0933 47.5843 17.72 47.243 17.464C46.923 17.1867 46.4323 16.984 45.771 16.856L42.571 16.248C41.2483 15.992 40.235 15.512 39.531 14.808C38.8483 14.0827 38.507 13.1547 38.507 12.024C38.507 11 38.7843 10.1147 39.339 9.368C39.915 8.62133 40.7043 8.04533 41.707 7.64C42.7097 7.23467 43.8617 7.032 45.163 7.032C46.1017 7.032 46.9763 7.13867 47.787 7.352C48.619 7.544 49.419 7.85333 50.187 8.28C50.507 8.45067 50.7203 8.67467 50.827 8.952C50.955 9.22933 50.987 9.51733 50.923 9.816C50.859 10.0933 50.731 10.3493 50.539 10.584C50.347 10.7973 50.1017 10.936 49.803 11C49.5257 11.0427 49.2057 10.9787 48.843 10.808C48.1817 10.4667 47.5417 10.2213 46.923 10.072C46.3257 9.92267 45.7497 9.848 45.195 9.848C44.1497 9.848 43.371 10.0293 42.859 10.392C42.3683 10.7547 42.123 11.2347 42.123 11.832C42.123 12.28 42.2723 12.6533 42.571 12.952C42.8697 13.2507 43.3283 13.4533 43.947 13.56L47.147 14.168C48.5337 14.424 49.579 14.8933 50.283 15.576C51.0083 16.2587 51.371 17.176 51.371 18.328C51.371 19.8853 50.763 21.112 49.547 22.008C48.331 22.8827 46.7097 23.32 44.683 23.32ZM57.14 23C56.436 23 55.892 22.8187 55.508 22.456C55.1453 22.072 54.964 21.528 54.964 20.824V2.616C54.964 1.912 55.1453 1.37867 55.508 1.016C55.892 0.631999 56.436 0.439999 57.14 0.439999H68.564C69.0973 0.439999 69.5027 0.578665 69.78 0.855999C70.0787 1.13333 70.228 1.528 70.228 2.04C70.228 2.57333 70.0787 2.98933 69.78 3.288C69.5027 3.56533 69.0973 3.704 68.564 3.704H58.9V9.912H67.86C68.4147 9.912 68.8307 10.0507 69.108 10.328C69.3853 10.6053 69.524 11.0107 69.524 11.544C69.524 12.0773 69.3853 12.4827 69.108 12.76C68.8307 13.0373 68.4147 13.176 67.86 13.176H58.9V19.736H68.564C69.0973 19.736 69.5027 19.8747 69.78 20.152C70.0787 20.4293 70.228 20.8347 70.228 21.368C70.228 21.9013 70.0787 22.3067 69.78 22.584C69.5027 22.8613 69.0973 23 68.564 23H57.14ZM74.6338 23C74.2284 23 73.8871 22.904 73.6098 22.712C73.3538 22.4987 73.1831 22.232 73.0978 21.912C73.0124 21.592 73.0124 21.2507 73.0978 20.888C73.2044 20.504 73.4071 20.1413 73.7057 19.8L81.9938 9.4V10.36H74.4418C73.9511 10.36 73.5671 10.232 73.2898 9.976C73.0338 9.69867 72.9058 9.32533 72.9058 8.856C72.9058 8.36533 73.0338 7.992 73.2898 7.736C73.5671 7.48 73.9511 7.352 74.4418 7.352H83.9138C84.3831 7.352 84.7671 7.45867 85.0658 7.672C85.3644 7.864 85.5564 8.12 85.6418 8.44C85.7484 8.76 85.7591 9.10133 85.6738 9.464C85.5884 9.82667 85.3964 10.168 85.0978 10.488L76.6498 21.048V19.992H84.6498C85.6738 19.992 86.1858 20.4933 86.1858 21.496C86.1858 21.9653 86.0471 22.3387 85.7698 22.616C85.5138 22.872 85.1404 23 84.6498 23H74.6338Z" fill="#007CEE"/>
</svg>
