<svg width="240" height="163" viewBox="0 0 240 163" fill="none" xmlns="http://www.w3.org/2000/svg">
<g clip-path="url(#clip0_137_756)">
<path d="M3.19171 12.5199H65.5346C66.3808 12.5208 67.1921 12.8568 67.7905 13.4542C68.3888 14.0515 68.7254 14.8614 68.7263 15.7061V107.992C68.7254 108.837 68.3888 109.647 67.7905 110.244C67.1921 110.841 66.3808 111.177 65.5346 111.178H3.19171C2.34551 111.177 1.53424 110.841 0.935885 110.244C0.33753 109.647 0.000951281 108.837 0 107.992V15.7061C0.000956529 14.8614 0.337536 14.0515 0.93589 13.4542C1.53425 12.8568 2.34551 12.5208 3.19171 12.5199Z" fill="#F2F2F2"/>
<path d="M3.96549 14.8372H64.7609C65.1968 14.8376 65.6148 15.0107 65.923 15.3184C66.2313 15.6262 66.4046 16.0434 66.4051 16.4785V107.219C66.4046 107.655 66.2313 108.072 65.923 108.38C65.6148 108.687 65.1968 108.86 64.7609 108.861H3.96549C3.52957 108.86 3.11164 108.687 2.8034 108.38C2.49516 108.072 2.32178 107.655 2.32129 107.219V16.4785C2.32178 16.0434 2.49516 15.6262 2.8034 15.3184C3.11164 15.0107 3.52957 14.8376 3.96549 14.8372Z" fill="white"/>
<path d="M46.2142 48.7291C46.2142 54.5626 40.8109 53.6803 34.1457 53.6803C27.4804 53.6803 22.0771 54.5626 22.0771 48.7291C22.0771 42.8957 24.7165 32.5554 34.1457 32.5554C43.8997 32.5554 46.2142 42.8957 46.2142 48.7291Z" fill="#2F2E41"/>
<path d="M60.4116 98.1079C60.6534 97.6491 60.7915 97.143 60.8161 96.6252C60.8408 96.1074 60.7514 95.5905 60.5543 95.1109C60.3572 94.6313 60.0571 94.2007 59.6753 93.8494C59.2934 93.4981 58.839 93.2346 58.3442 93.0776L44.5179 63.8794L38.1934 68.3067L53.7729 95.6154C53.5637 96.4629 53.6732 97.3574 54.0806 98.1297C54.488 98.9019 55.165 99.4981 55.9833 99.8053C56.8016 100.113 57.7044 100.109 58.5206 99.7966C59.3367 99.4837 60.0096 98.8829 60.4116 98.1079Z" fill="#A0616A"/>
<path d="M48.3803 66.4443L47.5901 65.2098L47.1868 64.576L44.082 59.7173C43.6039 58.6507 42.7217 57.8168 41.6288 57.3984C40.536 56.98 39.3215 57.0112 38.2516 57.4852C37.1817 57.9591 36.3437 58.8372 35.9212 59.9269C35.4987 61.0166 35.5262 62.2291 35.9977 63.2986L36.7087 65.8303L38.1601 71.0059C38.2482 71.3245 38.4358 71.6066 38.6958 71.8113C38.7942 71.8936 38.9032 71.9624 39.0198 72.0159C39.2229 72.1117 39.4441 72.1634 39.6687 72.1673C39.8933 72.1713 40.1161 72.1276 40.3225 72.039C40.3291 72.0357 40.3391 72.0324 40.3458 72.0291L44.1018 70.3524L44.1084 70.349L46.9751 69.0684L47.6894 68.7515C47.8942 68.6606 48.0769 68.5266 48.225 68.3587C48.382 68.1856 48.4973 67.979 48.5621 67.7547C48.6292 67.5362 48.6477 67.3057 48.6163 67.0794C48.5849 66.8531 48.5044 66.6363 48.3803 66.4443Z" fill="#CCCCCC"/>
<path d="M28.5645 107.842C28.4241 107.61 28.2263 107.417 27.99 107.282C27.7537 107.147 27.4868 107.075 27.2146 107.072C26.9425 107.07 26.6742 107.137 26.4353 107.267C26.1965 107.397 25.9949 107.586 25.85 107.816C25.7873 107.91 25.7373 108.012 25.7013 108.12L25.5127 108.638H29.044L28.5645 107.842Z" fill="#2F2E41"/>
<path d="M34.0702 53.3454C38.5553 53.3454 42.1911 49.7157 42.1911 45.2384C42.1911 40.761 38.5553 37.1313 34.0702 37.1313C29.5851 37.1313 25.9492 40.761 25.9492 45.2384C25.9492 49.7157 29.5851 53.3454 34.0702 53.3454Z" fill="#A0616A"/>
<path d="M48.3041 69.217C48.2843 68.9265 48.2578 68.6393 48.2249 68.3588C48.1075 67.2924 47.895 66.2385 47.5899 65.2099C47.5271 64.9854 47.4577 64.7676 47.3816 64.553C46.4148 61.7087 44.7347 59.1588 42.5014 57.1461C41.6172 56.3551 40.4715 55.9179 39.2842 55.9182H27.8439C27.1414 55.9183 26.4474 56.0716 25.8105 56.3674C25.1735 56.6632 24.609 57.0944 24.1564 57.6307C23.7039 58.1671 23.3742 58.7957 23.1904 59.4726C23.0066 60.1494 22.9732 60.8582 23.0925 61.5493C23.0891 61.5526 23.0891 61.5526 23.0925 61.5559C23.1732 62.0173 23.3214 62.4644 23.5323 62.8828L23.9952 63.8037L27.0966 69.996L30.9551 77.6999L31.18 78.1488L45.5598 82.0965L45.6193 81.9612C45.6722 81.8424 45.7284 81.7203 45.778 81.6014C45.8574 81.4232 45.9334 81.245 46.0095 81.07C47.2902 78.1618 48.0683 75.0581 48.3108 71.8906V71.8873C48.3649 70.9979 48.3627 70.1061 48.3041 69.217Z" fill="#3F3D56"/>
<path d="M46.0095 81.07C45.9606 80.902 45.8835 80.7435 45.7814 80.6013C45.4111 80.1068 44.9686 79.6707 44.4687 79.3074L44.4654 79.3041C42.7229 77.9838 39.2644 76.4456 32.5821 76.406H32.5721C32.2659 76.4063 31.9662 76.4945 31.7088 76.6601C31.4514 76.8257 31.2472 77.0618 31.1205 77.3401L30.9552 77.6999L29.8906 80.0368C29.7998 80.2368 29.6571 80.4088 29.4773 80.5352C27.7878 81.7301 19.6043 88.4307 24.4085 103.142C24.878 104.578 25.3607 106.146 25.8501 107.816C25.9295 108.087 26.0089 108.361 26.0882 108.638H40.4911L40.1835 106.327C40.163 106.177 40.1709 106.023 40.2068 105.875L46.0029 81.9975L46.0294 81.8952C46.0956 81.6231 46.0888 81.3385 46.0095 81.07Z" fill="#2F2E41"/>
<path d="M50.53 54.3403H56.8123C57.0753 54.3403 57.3276 54.4447 57.5137 54.6304C57.6997 54.8161 57.8042 55.0679 57.8042 55.3306V56.9809C57.8918 56.9812 57.9757 57.0161 58.0377 57.0779C58.0996 57.1397 58.1346 57.2236 58.1348 57.311V57.9712C58.1346 58.0586 58.0996 58.1424 58.0377 58.2043C57.9757 58.2661 57.8918 58.301 57.8042 58.3012V58.9614C57.8918 58.9617 57.9757 58.9965 58.0377 59.0584C58.0996 59.1202 58.1346 59.204 58.1348 59.2915V59.9516C58.1346 60.0391 58.0996 60.1229 58.0377 60.1847C57.9757 60.2466 57.8918 60.2814 57.8042 60.2817V69.1938C57.8042 69.4564 57.6997 69.7082 57.5137 69.8939C57.3276 70.0796 57.0753 70.184 56.8123 70.184H50.53C50.2669 70.184 50.0146 70.0796 49.8286 69.8939C49.6426 69.7082 49.5381 69.4564 49.5381 69.1938V55.3306C49.5381 55.0679 49.6426 54.8161 49.8286 54.6304C50.0146 54.4447 50.2669 54.3403 50.53 54.3403Z" fill="#3F3D56"/>
<path d="M50.1994 69.1938V55.3306C50.1994 55.0679 50.3039 54.8161 50.4899 54.6304C50.6759 54.4447 50.9282 54.3403 51.1913 54.3403H50.53C50.2669 54.3403 50.0147 54.4447 49.8286 54.6304C49.6426 54.8161 49.5381 55.0679 49.5381 55.3306V69.1938C49.5381 69.4564 49.6426 69.7082 49.8286 69.8939C50.0147 70.0796 50.2669 70.184 50.53 70.184H51.1913C50.9282 70.184 50.6759 70.0796 50.4899 69.8939C50.3039 69.7082 50.1994 69.4564 50.1994 69.1938Z" fill="#007CEE"/>
<path d="M53.5052 60.2817C54.2356 60.2817 54.8278 59.6906 54.8278 58.9614C54.8278 58.2322 54.2356 57.6411 53.5052 57.6411C52.7748 57.6411 52.1826 58.2322 52.1826 58.9614C52.1826 59.6906 52.7748 60.2817 53.5052 60.2817Z" fill="white"/>
<path d="M51.8278 63.5869C51.7203 63.7348 51.6248 63.8909 51.542 64.0538L35.2613 66.0062L32.8672 62.8277L27.5898 65.8077L31.2804 71.8457C31.5786 72.3335 32.0272 72.7116 32.5589 72.9232C33.0906 73.1348 33.6767 73.1685 34.2293 73.0193L52.2372 68.1553C52.749 68.6391 53.3961 68.956 54.0926 69.0637C54.7892 69.1714 55.502 69.0648 56.1364 68.7582C56.7708 68.4516 57.2966 67.9594 57.6439 67.3472C57.9913 66.735 58.1437 66.0317 58.0809 65.3309C58.0181 64.63 57.743 63.9649 57.2923 63.424C56.8416 62.883 56.2366 62.4919 55.5578 62.3026C54.8789 62.1133 54.1585 62.1348 53.4922 62.3642C52.8259 62.5936 52.2453 63.0201 51.8278 63.5869Z" fill="#A0616A"/>
<path d="M35.1254 63.972L30.5624 58.0702C30.0532 57.1607 29.2181 56.4773 28.225 56.1572C27.2318 55.8371 26.154 55.904 25.2082 56.3445C24.2624 56.7851 23.5187 57.5665 23.1263 58.532C22.734 59.4975 22.7222 60.5754 23.0932 61.5492C23.0898 61.5525 23.0898 61.5525 23.0932 61.5558C23.1612 61.7356 23.243 61.91 23.3378 62.0773L23.9958 63.8036L25.9962 69.0683C26.0718 69.2681 26.1899 69.4492 26.3423 69.599C26.4947 69.7489 26.6779 69.864 26.8791 69.9364C26.95 69.9624 27.023 69.9822 27.0973 69.9958C27.4437 70.0665 27.8041 70.0102 28.1124 69.8374L29.5606 69.0287L34.6724 66.1769C34.8583 66.0715 35.0197 65.9279 35.1457 65.7554C35.2717 65.583 35.3594 65.3857 35.4031 65.1767C35.446 64.9678 35.4434 64.7521 35.3955 64.5442C35.3476 64.3363 35.2555 64.1412 35.1254 63.972Z" fill="#3F3D56"/>
<path d="M24.7227 46.7487H27.9347L29.3517 41.8737L29.635 46.7487H31.1702L31.9968 43.905L32.1622 46.7487H43.5694C43.5694 40.9152 39.7205 36.1863 34.9726 36.1863H33.3194C28.5715 36.1863 24.7227 40.9152 24.7227 46.7487Z" fill="#2F2E41"/>
<path d="M118.916 40.5517H51.5999C50.7537 40.5508 49.9424 40.2148 49.3441 39.6175C48.7457 39.0201 48.4092 38.2103 48.4082 37.3655V3.18622C48.4092 2.34148 48.7457 1.5316 49.3441 0.934272C49.9424 0.336945 50.7537 0.000949646 51.5999 0H118.916C119.762 0.000948774 120.573 0.336945 121.171 0.934272C121.77 1.5316 122.106 2.34148 122.107 3.18622V37.3655C122.106 38.2103 121.77 39.0202 121.171 39.6175C120.573 40.2148 119.762 40.5508 118.916 40.5517Z" fill="#CCCCCC"/>
<path d="M118.142 38.2345H52.3737C51.9378 38.234 51.5198 38.0609 51.2116 37.7532C50.9034 37.4455 50.73 37.0283 50.7295 36.5931V3.95864C50.73 3.52347 50.9034 3.10626 51.2116 2.79854C51.5198 2.49083 51.9378 2.31775 52.3737 2.31726H118.142C118.578 2.31775 118.996 2.49083 119.304 2.79854C119.612 3.10626 119.786 3.52347 119.786 3.95864V36.5931C119.786 37.0283 119.612 37.4455 119.304 37.7532C118.996 38.0609 118.578 38.234 118.142 38.2345Z" fill="white"/>
<path d="M55.6362 46.8344C55.4729 46.834 55.3113 46.8013 55.1607 46.7384C54.9359 46.6482 54.7436 46.4924 54.609 46.2913C54.4744 46.0901 54.4038 45.8531 54.4063 45.6113V39.3294L63.8892 39.0901L56.4925 46.4739C56.3808 46.5876 56.2475 46.678 56.1005 46.7399C55.9535 46.8018 55.7957 46.8339 55.6362 46.8344Z" fill="#CCCCCC"/>
<path d="M110.134 18.8124H76.8632C76.6598 18.8127 76.4583 18.773 76.2703 18.6955C76.0823 18.618 75.9115 18.5042 75.7675 18.3608C75.6236 18.2173 75.5094 18.0469 75.4315 17.8593C75.3536 17.6717 75.3135 17.4707 75.3135 17.2676C75.3135 17.0645 75.3536 16.8635 75.4315 16.6759C75.5094 16.4883 75.6236 16.3179 75.7675 16.1744C75.9115 16.031 76.0823 15.9172 76.2703 15.8397C76.4583 15.7622 76.6598 15.7225 76.8632 15.7228H110.134C110.545 15.7228 110.938 15.8855 111.228 16.1752C111.519 16.465 111.682 16.8579 111.682 17.2676C111.682 17.6773 111.519 18.0703 111.228 18.36C110.938 18.6497 110.545 18.8124 110.134 18.8124Z" fill="#007CEE"/>
<path d="M99.3015 12.2469H76.8629C76.4525 12.2469 76.0589 12.0841 75.7687 11.7944C75.4785 11.5047 75.3154 11.1118 75.3154 10.7021C75.3154 10.2923 75.4785 9.89941 75.7687 9.6097C76.0589 9.31998 76.4525 9.15723 76.8629 9.15723H99.3015C99.7119 9.15723 100.106 9.31998 100.396 9.6097C100.686 9.89941 100.849 10.2923 100.849 10.7021C100.849 11.1118 100.686 11.5047 100.396 11.7944C100.106 12.0841 99.7119 12.2469 99.3015 12.2469Z" fill="#007CEE"/>
<path d="M63.0908 18.8124C65.7616 18.8124 67.9267 16.651 67.9267 13.9848C67.9267 11.3186 65.7616 9.15723 63.0908 9.15723C60.42 9.15723 58.2549 11.3186 58.2549 13.9848C58.2549 16.651 60.42 18.8124 63.0908 18.8124Z" fill="#007CEE"/>
<path d="M99.8805 31.3945C100.735 31.3945 101.428 30.7028 101.428 29.8496C101.428 28.9965 100.735 28.3048 99.8805 28.3048C99.0258 28.3048 98.333 28.9965 98.333 29.8496C98.333 30.7028 99.0258 31.3945 99.8805 31.3945Z" fill="#E6E6E6"/>
<path d="M105.297 31.3945C106.152 31.3945 106.845 30.7028 106.845 29.8496C106.845 28.9965 106.152 28.3048 105.297 28.3048C104.443 28.3048 103.75 28.9965 103.75 29.8496C103.75 30.7028 104.443 31.3945 105.297 31.3945Z" fill="#E6E6E6"/>
<path d="M110.713 31.3945C111.568 31.3945 112.261 30.7028 112.261 29.8496C112.261 28.9965 111.568 28.3048 110.713 28.3048C109.859 28.3048 109.166 28.9965 109.166 29.8496C109.166 30.7028 109.859 31.3945 110.713 31.3945Z" fill="#E6E6E6"/>
<path d="M174.465 64.3418H236.808C237.654 64.3427 238.466 64.6787 239.064 65.2761C239.662 65.8734 239.999 66.6833 240 67.528V159.814C239.999 160.659 239.662 161.468 239.064 162.066C238.466 162.663 237.654 162.999 236.808 163H174.465C173.619 162.999 172.808 162.663 172.209 162.066C171.611 161.468 171.274 160.659 171.273 159.814V67.528C171.274 66.6833 171.611 65.8734 172.209 65.2761C172.808 64.6787 173.619 64.3427 174.465 64.3418Z" fill="#F2F2F2"/>
<path d="M175.239 66.6591H236.034C236.47 66.6595 236.888 66.8326 237.196 67.1403C237.505 67.4481 237.678 67.8653 237.679 68.3004V159.041C237.678 159.477 237.505 159.894 237.196 160.201C236.888 160.509 236.47 160.682 236.034 160.683H175.239C174.803 160.682 174.385 160.509 174.077 160.201C173.769 159.894 173.595 159.477 173.595 159.041V68.3004C173.595 67.8653 173.769 67.4481 174.077 67.1403C174.385 66.8326 174.803 66.6595 175.239 66.6591Z" fill="white"/>
<path d="M177.084 111.066H109.768C108.922 111.065 108.11 110.729 107.512 110.132C106.914 109.534 106.577 108.724 106.576 107.88V73.7004C106.577 72.8556 106.914 72.0457 107.512 71.4484C108.11 70.8511 108.922 70.5151 109.768 70.5142H177.084C177.93 70.5151 178.741 70.8511 179.339 71.4484C179.938 72.0457 180.274 72.8556 180.275 73.7004V107.88C180.274 108.724 179.938 109.534 179.339 110.132C178.741 110.729 177.93 111.065 177.084 111.066Z" fill="#CCCCCC"/>
<path d="M176.31 108.749H110.542C110.106 108.748 109.688 108.575 109.38 108.267C109.071 107.96 108.898 107.542 108.897 107.107V74.4727C108.898 74.0375 109.071 73.6203 109.38 73.3126C109.688 73.0049 110.106 72.8318 110.542 72.8313H176.31C176.746 72.8318 177.164 73.0049 177.472 73.3126C177.78 73.6203 177.954 74.0375 177.954 74.4727V107.107C177.954 107.542 177.78 107.96 177.472 108.267C177.164 108.575 176.746 108.748 176.31 108.749Z" fill="white"/>
<path d="M172.501 116.988L165.104 109.604L174.587 109.844V116.125C174.59 116.367 174.519 116.604 174.385 116.805C174.25 117.007 174.058 117.162 173.833 117.253C173.682 117.316 173.521 117.348 173.358 117.349C173.198 117.348 173.04 117.316 172.893 117.254C172.746 117.192 172.613 117.102 172.501 116.988Z" fill="#CCCCCC"/>
<path d="M168.302 89.3265H135.031C134.828 89.3268 134.626 89.287 134.438 89.2095C134.25 89.132 134.079 89.0183 133.935 88.8748C133.792 88.7313 133.677 88.5609 133.599 88.3733C133.522 88.1858 133.481 87.9847 133.481 87.7816C133.481 87.5786 133.522 87.3775 133.599 87.1899C133.677 87.0024 133.792 86.832 133.935 86.6885C134.079 86.545 134.25 86.4313 134.438 86.3538C134.626 86.2763 134.828 86.2365 135.031 86.2368H168.302C168.506 86.2365 168.707 86.2763 168.895 86.3538C169.083 86.4313 169.254 86.545 169.398 86.6885C169.542 86.832 169.656 87.0024 169.734 87.1899C169.812 87.3775 169.852 87.5786 169.852 87.7816C169.852 87.9847 169.812 88.1858 169.734 88.3733C169.656 88.5609 169.542 88.7313 169.398 88.8748C169.254 89.0183 169.083 89.132 168.895 89.2095C168.707 89.287 168.506 89.3268 168.302 89.3265Z" fill="#007CEE"/>
<path d="M157.47 82.761H135.032C134.829 82.761 134.627 82.7211 134.44 82.6435C134.252 82.5658 134.081 82.452 133.938 82.3086C133.794 82.1651 133.68 81.9948 133.602 81.8074C133.524 81.62 133.484 81.4191 133.484 81.2162C133.484 81.0133 133.524 80.8125 133.602 80.625C133.68 80.4376 133.794 80.2673 133.938 80.1239C134.081 79.9804 134.252 79.8666 134.44 79.789C134.627 79.7113 134.829 79.6714 135.032 79.6714H157.47C157.881 79.6714 158.274 79.8341 158.565 80.1239C158.855 80.4136 159.018 80.8065 159.018 81.2162C159.018 81.6259 158.855 82.0189 158.565 82.3086C158.274 82.5983 157.881 82.761 157.47 82.761Z" fill="#007CEE"/>
<path d="M121.259 89.3266C123.93 89.3266 126.095 87.1652 126.095 84.499C126.095 81.8328 123.93 79.6714 121.259 79.6714C118.588 79.6714 116.423 81.8328 116.423 84.499C116.423 87.1652 118.588 89.3266 121.259 89.3266Z" fill="#007CEE"/>
<path d="M158.049 101.909C158.904 101.909 159.597 101.217 159.597 100.364C159.597 99.5106 158.904 98.819 158.049 98.819C157.195 98.819 156.502 99.5106 156.502 100.364C156.502 101.217 157.195 101.909 158.049 101.909Z" fill="#E6E6E6"/>
<path d="M163.465 101.909C164.32 101.909 165.013 101.217 165.013 100.364C165.013 99.5106 164.32 98.819 163.465 98.819C162.611 98.819 161.918 99.5106 161.918 100.364C161.918 101.217 162.611 101.909 163.465 101.909Z" fill="#E6E6E6"/>
<path d="M168.881 101.909C169.736 101.909 170.429 101.217 170.429 100.364C170.429 99.5106 169.736 98.819 168.881 98.819C168.027 98.819 167.334 99.5106 167.334 100.364C167.334 101.217 168.027 101.909 168.881 101.909Z" fill="#E6E6E6"/>
<path d="M177.823 131.753C178.091 131.348 178.445 131.007 178.859 130.753C179.274 130.5 179.739 130.34 180.222 130.285C180.705 130.23 181.194 130.281 181.655 130.436C182.115 130.59 182.537 130.843 182.889 131.177L193.388 125.767L192.736 131.862L182.865 136.065C182.263 136.619 181.479 136.932 180.661 136.947C179.843 136.962 179.047 136.676 178.426 136.145C177.804 135.613 177.4 134.873 177.289 134.063C177.178 133.254 177.368 132.432 177.823 131.753Z" fill="#FFB8B8"/>
<path d="M210.515 104.657C209.7 104.021 208.701 103.665 207.668 103.641C206.634 103.618 205.62 103.929 204.778 104.528C204.398 104.801 204.058 105.125 203.769 105.492L194.551 122.561L186.044 128.977C185.762 129.189 185.565 129.495 185.488 129.839C185.43 130.091 185.441 130.354 185.518 130.601L186.354 133.295C186.444 133.584 186.619 133.839 186.857 134.027C186.95 134.097 187.05 134.157 187.155 134.206C187.167 134.212 187.18 134.218 187.194 134.222C187.38 134.302 187.58 134.342 187.781 134.342C187.983 134.341 188.183 134.299 188.368 134.219L198.34 129.901L198.449 129.852C201.811 128.367 204.525 125.725 206.097 122.409L211.341 111.361C212.118 110.361 212.468 109.095 212.313 107.839C212.158 106.583 211.511 105.439 210.515 104.657Z" fill="#3F3D56"/>
<path d="M211.572 98.3676C216.057 98.3676 219.693 94.7379 219.693 90.2606C219.693 85.7832 216.057 82.1536 211.572 82.1536C207.087 82.1536 203.451 85.7832 203.451 90.2606C203.451 94.7379 207.087 98.3676 211.572 98.3676Z" fill="#FFB8B8"/>
<path d="M217.069 144.474L216.986 143.844L216.603 140.969L216.183 137.83L214.691 138.084L214.116 138.18L213.534 138.279L213.342 138.312L198.549 140.82L196.708 139.715L196.668 139.691L196.685 139.86L197.032 143.454L198.688 160.625H219.228L217.069 144.474Z" fill="#2F2E41"/>
<path d="M222.755 111.49C222.492 108.549 221.1 105.824 218.87 103.885C216.724 101.988 213.912 101.019 211.05 101.191C208.323 101.373 206.226 102.492 204.778 104.528C204.033 105.618 203.483 106.829 203.151 108.106C201.505 114.021 199.769 122.686 198.45 129.852C197.709 133.852 197.101 137.388 196.707 139.715C196.701 139.764 196.694 139.81 196.684 139.86C196.532 140.768 196.416 141.477 196.34 141.949C196.292 142.24 196.332 142.539 196.455 142.807C196.578 143.075 196.779 143.301 197.031 143.454C197.034 143.458 197.041 143.461 197.044 143.464C198.713 144.461 200.618 144.995 202.563 145.012C204.917 145.012 207.741 144.194 210.713 141.55C210.915 141.367 211.175 141.26 211.447 141.249C211.72 141.237 211.988 141.322 212.204 141.487L212.528 141.738L215.729 144.223C215.979 144.418 216.285 144.528 216.602 144.537C216.76 144.544 216.918 144.523 217.068 144.474C217.082 144.473 217.095 144.469 217.108 144.464C217.339 144.389 217.547 144.259 217.716 144.085C217.884 143.91 218.007 143.697 218.073 143.464C218.252 142.844 218.45 142.127 218.669 141.329C218.758 140.995 218.85 140.645 218.946 140.282C219.366 138.678 219.832 136.816 220.289 134.79C221.882 127.706 223.397 118.606 222.755 111.49Z" fill="#3F3D56"/>
<path d="M209.382 145.321C209.343 144.837 209.41 144.351 209.579 143.896C209.748 143.441 210.015 143.029 210.361 142.688C210.707 142.348 211.124 142.087 211.582 141.924C212.04 141.762 212.528 141.701 213.012 141.747L217.929 131.022L221.183 136.22L216.015 145.608C215.884 146.414 215.46 147.145 214.826 147.66C214.191 148.176 213.389 148.441 212.571 148.406C211.753 148.37 210.977 148.037 210.389 147.468C209.802 146.9 209.443 146.136 209.382 145.321Z" fill="#FFB8B8"/>
<path d="M225.854 120.55L223.149 108.625C223.142 107.448 222.703 106.315 221.914 105.441C221.125 104.567 220.042 104.013 218.87 103.885C218.702 103.868 218.53 103.858 218.354 103.858C217.723 103.86 217.098 103.986 216.515 104.229C215.933 104.472 215.404 104.827 214.959 105.275C214.514 105.722 214.161 106.252 213.922 106.836C213.683 107.419 213.561 108.044 213.564 108.674L216.863 127.782L216.854 127.822L215.104 134.414L214.136 138.074C214.125 138.109 214.119 138.144 214.116 138.18C214.054 138.487 214.094 138.806 214.231 139.087C214.341 139.324 214.513 139.527 214.727 139.675L216.602 140.969L217.049 141.279C217.297 141.452 217.592 141.544 217.895 141.543C218.012 141.543 218.128 141.53 218.242 141.504C218.255 141.5 218.265 141.497 218.278 141.494C218.416 141.458 218.547 141.402 218.669 141.329C218.894 141.192 219.079 140.999 219.204 140.768L224.382 131.225C226.151 127.962 226.674 124.169 225.854 120.55Z" fill="#3F3D56"/>
<path opacity="0.2" d="M214.222 116.732L217.198 129.275L212.899 139.837L215.875 129.605L214.222 116.732Z" fill="black"/>
<path d="M218.144 95.1328C218.825 94.8906 219.45 94.5162 219.985 94.0311C220.221 93.8205 220.475 93.6248 220.711 93.4143C222.794 91.555 223.419 88.3576 222.49 85.7274C221.561 83.0972 219.25 81.0754 216.61 80.1642C213.969 79.2531 211.043 79.3774 208.362 80.1617C205.474 81.0064 202.581 82.9086 201.895 85.8337C201.713 86.6123 201.706 87.4761 202.237 88.1329C202.397 88.3313 202.606 88.4844 202.843 88.5768C203.779 88.9349 204.301 88.2038 204.999 87.8933C205.959 87.4665 207.141 87.9274 207.809 88.7371C208.478 89.5468 208.725 90.6223 208.828 91.6665C208.848 92.3102 208.949 92.9489 209.129 93.5676C209.222 93.8766 209.393 94.1567 209.625 94.3813C209.857 94.6059 210.143 94.7677 210.455 94.8512C211.208 94.9901 211.933 94.4723 212.407 93.8714C212.881 93.2706 213.217 92.5569 213.777 92.0351C214.337 91.5133 215.25 91.2379 215.864 91.6954C216.07 91.8686 216.243 92.0766 216.377 92.3097C217.318 93.7526 217.203 93.6899 218.144 95.1328Z" fill="#2F2E41"/>
<path d="M179.254 124.812L173.524 127.386C173.284 127.493 173.097 127.692 173.004 127.937C172.911 128.183 172.919 128.455 173.027 128.695L173.705 130.2C173.625 130.236 173.563 130.302 173.532 130.384C173.501 130.466 173.504 130.557 173.539 130.636L173.811 131.238C173.847 131.318 173.913 131.38 173.995 131.411C174.077 131.442 174.168 131.44 174.248 131.404L174.519 132.006C174.439 132.042 174.377 132.108 174.346 132.19C174.315 132.272 174.317 132.363 174.353 132.442L174.625 133.044C174.661 133.124 174.727 133.186 174.809 133.217C174.891 133.248 174.982 133.246 175.062 133.21L178.725 141.337C178.832 141.577 179.031 141.764 179.277 141.857C179.523 141.95 179.796 141.942 180.036 141.834L185.765 139.261C186.005 139.153 186.192 138.955 186.286 138.709C186.379 138.464 186.371 138.191 186.263 137.952L180.565 125.309C180.457 125.07 180.258 124.883 180.012 124.79C179.766 124.696 179.493 124.705 179.254 124.812Z" fill="#3F3D56"/>
<path d="M185.201 137.206L184.394 135.414L182.278 130.72L180.42 126.597C180.316 126.368 180.126 126.188 179.89 126.099C179.655 126.009 179.393 126.016 179.163 126.119L176.009 127.535L174.564 128.185C174.335 128.289 174.156 128.479 174.067 128.714C173.978 128.949 173.985 129.21 174.088 129.439L176.009 133.704L176.746 135.338L178.869 140.051C178.973 140.28 179.165 140.459 179.401 140.548C179.637 140.637 179.898 140.629 180.129 140.527L184.725 138.46C184.954 138.357 185.133 138.166 185.222 137.931C185.311 137.696 185.304 137.435 185.201 137.206Z" fill="#007CEE"/>
</g>
<defs>
<clipPath id="clip0_137_756">
<rect width="240" height="163" fill="white"/>
</clipPath>
</defs>
</svg>
