<svg width="15" height="15" viewBox="0 0 15 15" fill="none" xmlns="http://www.w3.org/2000/svg">
<g clip-path="url(#clip0_1861_55)">
<path d="M0.622944 10.7958L10.4035 10.4465C11.1208 8.96154 10.3866 7.73635 10.3866 7.73635C12.2845 7.20143 13.2938 9.33095 13.6001 9.6372C13.6605 9.69855 13.9645 9.3456 13.9645 9.3456C13.1867 -2.95337 -3.05747 1.34092 0.622944 10.7958Z" fill="#ED5564"/>
<path d="M15.0003 9.47563C15.0003 10.1659 14.4409 10.7258 13.7507 10.7258C13.0599 10.7258 12.5 10.166 12.5 9.47563C12.5 8.78532 13.0598 8.2255 13.7507 8.2255C14.4409 8.2255 15.0003 8.78532 15.0003 9.47563Z" fill="#E6E9ED"/>
<path d="M11.25 10.7821C11.25 10.4058 10.9452 10.1009 10.5693 10.1009H0.680934C0.30487 10.1009 0 10.4058 0 10.7821V12.5454C0 12.9212 0.30487 13.2261 0.680934 13.2261H10.5693C10.9452 13.2261 11.25 12.9212 11.25 12.5454V10.7821Z" fill="#E6E9ED"/>
<path d="M9.37467 12.1842C9.20254 12.1842 9.0625 12.3243 9.0625 12.4969V13.2261H9.68733V12.4969C9.68733 12.3243 9.5477 12.1842 9.37467 12.1842Z" fill="#CCD1D9"/>
<path d="M6.8749 12.1842C6.70231 12.1842 6.5625 12.3243 6.5625 12.4969V13.2261H7.18733V12.4969C7.18733 12.3243 7.04746 12.1842 6.8749 12.1842Z" fill="#CCD1D9"/>
<path d="M4.37493 12.1842C4.20234 12.1842 4.0625 12.3243 4.0625 12.4969V13.2261H4.68736V12.4969C4.68736 12.3243 4.54749 12.1842 4.37493 12.1842Z" fill="#CCD1D9"/>
<path d="M1.87493 12.1842C1.70234 12.1842 1.5625 12.3243 1.5625 12.4969V13.2261H2.18759V12.4969C2.18759 12.3243 2.04752 12.1842 1.87493 12.1842Z" fill="#CCD1D9"/>
</g>
<defs>
<clipPath id="clip0_1861_55">
<rect width="15" height="15" fill="white"/>
</clipPath>
</defs>
</svg>
