<svg width="24" height="24" viewBox="0 0 24 24" fill="none" xmlns="http://www.w3.org/2000/svg">
<path d="M22.3442 13.1588L16.7714 13.8153L13.5001 11.9266L16.7714 10.038L22.3442 10.6946C22.3749 10.6982 22.4055 10.7 22.4357 10.7C22.8224 10.7 23.1565 10.4105 23.2028 10.017C23.2528 9.59274 22.9494 9.20831 22.5252 9.15835L19.012 8.74444L21.2006 7.48083C21.5706 7.26722 21.6973 6.7942 21.4837 6.42427C21.2701 6.05433 20.7972 5.92753 20.4272 6.14114L18.2385 7.40475L19.6366 4.15524C19.8055 3.76285 19.6243 3.30792 19.2319 3.13908C18.8396 2.97028 18.3846 3.15145 18.2157 3.54385L15.9979 8.69836L12.7934 10.5485V6.7711L16.1483 2.2732C16.4038 1.93078 16.3332 1.44619 15.9908 1.19081C15.6484 0.935439 15.1638 1.00594 14.9084 1.34836L12.7934 4.18392V1.91681C12.7934 1.48964 12.4471 1.14338 12.02 1.14338C11.5928 1.14338 11.2465 1.48964 11.2465 1.91681V4.18397L9.13142 1.34836C8.876 1.00594 8.39136 0.935486 8.04903 1.19081C7.70661 1.44624 7.63611 1.93083 7.89149 2.2732L11.2465 6.77114V10.6255L7.9085 8.69827L5.69071 3.54385C5.52186 3.1515 5.06694 2.97028 4.67455 3.13908C4.28216 3.30792 4.10094 3.76289 4.26978 4.15524L5.66797 7.40475L3.70457 6.27117C3.33463 6.05766 2.86161 6.18436 2.648 6.5543C2.43444 6.92424 2.56114 7.39725 2.93113 7.61086L4.89453 8.74444L1.38125 9.15835C0.957033 9.20831 0.653658 9.59274 0.703627 10.017C0.749987 10.4105 1.08406 10.7 1.47078 10.7C1.50097 10.7 1.53153 10.6982 1.56224 10.6946L7.13511 10.038L10.4064 11.9266L7.13511 13.8153L1.56228 13.1588C1.13792 13.1088 0.753643 13.4121 0.703674 13.8364C0.653705 14.2606 0.95708 14.645 1.3813 14.695L4.89453 15.1089L2.93117 16.2424C2.56124 16.456 2.43449 16.929 2.64805 17.2989C2.7913 17.5471 3.05127 17.6858 3.3186 17.6858C3.4498 17.6858 3.58278 17.6523 3.70457 17.582L5.66802 16.4484L4.26978 19.698C4.10094 20.0904 4.28221 20.5453 4.67455 20.7142C4.77096 20.7558 4.87487 20.7773 4.97989 20.7773C5.27956 20.7773 5.5648 20.6022 5.69075 20.3094L7.9086 15.1549L11.2466 13.2278V17.0051L7.89153 21.503C7.63616 21.8454 7.70666 22.33 8.04908 22.5854C8.18237 22.6852 8.34443 22.7391 8.51094 22.7389C8.74677 22.7389 8.97964 22.6314 9.13152 22.4279L11.2466 19.5923V22.1195C11.2466 22.5466 11.5929 22.893 12.02 22.893C12.4472 22.893 12.7935 22.5466 12.7935 22.1195V19.5923L14.9085 22.4279C15.1639 22.7703 15.6486 22.8408 15.9909 22.5854C16.3333 22.33 16.4039 21.8454 16.1484 21.503L12.7935 17.0051V13.3047L15.998 15.1548L18.2158 20.3093C18.3418 20.6021 18.627 20.7773 18.9267 20.7773C19.0317 20.7772 19.1356 20.7557 19.232 20.7141C19.6244 20.5452 19.8056 20.0903 19.6368 19.6979L18.2386 16.4483L20.4273 17.712C20.5445 17.78 20.6777 17.8158 20.8132 17.8158C21.0805 17.8158 21.3405 17.677 21.4838 17.4289C21.6974 17.059 21.5706 16.586 21.2007 16.3724L19.0121 15.1088L22.5253 14.6949C22.9495 14.6449 23.2529 14.2605 23.2029 13.8363C23.1529 13.4122 22.7688 13.1088 22.3442 13.1588Z" fill="#007CEE"/>
</svg>
