<svg width="180" height="179" viewBox="0 0 180 179" fill="none" xmlns="http://www.w3.org/2000/svg">
<g clip-path="url(#clip0_97_493)">
<path d="M178.458 89.4998C178.47 99.6855 176.745 109.798 173.357 119.4C173.355 119.407 173.353 119.411 173.351 119.417C173.336 119.462 173.321 119.502 173.304 119.547V119.549C172.581 121.586 171.787 123.588 170.922 125.557C168.738 130.521 166.109 135.276 163.067 139.762C162.329 140.855 161.566 141.93 160.776 142.987C159.907 144.156 159.01 145.302 158.086 146.425C157.234 147.46 156.36 148.475 155.462 149.471C154.396 150.657 153.298 151.813 152.169 152.938C149.51 155.594 146.687 158.079 143.716 160.379C143.195 160.785 142.668 161.184 142.135 161.576C140.895 162.494 139.631 163.38 138.341 164.233C135.505 166.114 132.564 167.828 129.531 169.369C129.007 169.637 128.48 169.901 127.95 170.156C125.9 171.149 123.809 172.062 121.676 172.896C121.068 173.136 120.457 173.368 119.841 173.591C119.737 173.632 119.633 173.67 119.527 173.706C112.213 176.354 104.584 178.025 96.836 178.676C96.2977 178.725 95.7586 178.766 95.2188 178.8C94.6466 178.84 94.0736 178.873 93.5 178.897C93.0464 178.921 92.595 178.938 92.1393 178.951C92.046 178.955 91.9506 178.959 91.8574 178.959C91.2449 178.978 90.6302 178.99 90.0135 178.995C89.7528 178.997 89.4921 178.999 89.2293 178.999C89.1063 178.999 88.9834 178.999 88.8605 178.997C87.0823 178.991 85.3175 178.933 83.5661 178.823C83.53 178.821 83.494 178.817 83.458 178.817C82.8306 178.774 82.2054 178.73 81.5823 178.674C79.3632 178.487 77.1681 178.218 74.9971 177.866C74.4969 177.788 73.9981 177.703 73.5008 177.611C71.341 177.229 69.2096 176.767 67.1063 176.227C66.4811 176.068 65.8594 175.901 65.2412 175.728C61.6734 174.732 58.1715 173.512 54.7563 172.075C52.7958 171.251 50.872 170.359 48.985 169.401C48.1351 168.97 47.2936 168.525 46.4607 168.066C46.2339 167.943 46.0093 167.817 45.7846 167.692C44.1441 166.774 42.5376 165.806 40.9649 164.788C39.6763 163.957 38.4117 163.092 37.1711 162.194C37.0185 162.088 36.868 161.978 36.7176 161.867C35.7659 161.172 34.8298 160.459 33.9093 159.728C31.9064 158.136 29.9748 156.463 28.1147 154.709C26.8282 153.497 25.5791 152.247 24.3675 150.959C17.3077 143.47 11.5883 134.817 7.46055 125.378C6.58309 123.369 5.7777 121.324 5.04436 119.241C5.04198 119.236 5.04054 119.231 5.04013 119.226C1.69349 109.675 -0.0107905 99.6233 5.14039e-05 89.4998C5.14039e-05 51.9226 23.0894 19.7537 55.8139 6.48821C67.4762 1.78072 79.9968 -0.408681 92.5593 0.0627418C105.122 0.534165 117.444 3.65582 128.723 9.22422C158.192 23.8354 178.458 54.2951 178.458 89.4998Z" fill="#F2F2F2"/>
<path d="M128.723 9.22422V122.323H55.8135V6.48821C67.4758 1.78072 79.9964 -0.408681 92.5589 0.0627418C105.121 0.534165 117.444 3.65582 128.723 9.22422Z" fill="white"/>
<path d="M73.3591 60.8C75.3369 57.5189 77.6806 54.0156 81.351 52.9442C85.6016 51.7035 89.968 54.1683 93.6717 56.6005C104.748 63.8744 115.415 71.7573 125.623 80.2129L125.612 80.3403C117.664 79.7906 109.717 79.2409 101.769 78.6911C96.0272 78.294 90.0879 77.842 85.0135 75.1174C83.088 74.0835 81.211 72.7025 79.029 72.6063C76.3181 72.4867 73.9544 74.3857 72.0969 76.3698C61.1088 88.106 57.9291 106.054 45.6016 116.365C53.3749 97.1362 62.6565 78.5564 73.3591 60.8Z" fill="#F2F2F2"/>
<path d="M134.056 12.109C133.872 11.9857 133.686 11.8687 133.501 11.7497C128.171 8.33037 122.458 5.55255 116.48 3.47362L115.094 22.6534H106.306V0.673832C105.753 0.559034 105.196 0.450614 104.638 0.348572V22.6534H94.1957C88.447 22.6534 82.9337 20.3628 78.8687 16.2854C74.8037 12.2081 72.5201 6.67813 72.5201 0.911957C71.9605 1.03313 71.4052 1.16279 70.8499 1.30097V22.6534H62.3445L61.0241 4.36437C54.8808 6.72757 49.0486 9.83528 43.6573 13.6183C43.564 13.6821 43.4708 13.748 43.3796 13.8118C42.9112 14.1413 42.4492 14.4772 41.9893 14.8174V121.577H67.0561L66.6131 115.423L64.1758 48.0428H113.26L110.823 115.423L110.38 121.577H135.169V12.8488C134.8 12.5979 134.429 12.3513 134.056 12.109ZM70.8499 42.4623H63.7731L62.4654 24.3286H70.8499V42.4623ZM104.638 42.4623H92.7524V42.1031C92.7524 41.9304 92.7185 41.7593 92.6525 41.5998C92.5866 41.4403 92.4899 41.2953 92.368 41.1733C92.2462 41.0513 92.1015 40.9546 91.9424 40.8887C91.7832 40.8228 91.6127 40.789 91.4405 40.7893H86.2732C86.1012 40.7892 85.9309 40.8231 85.7719 40.8891C85.613 40.9551 85.4685 41.0519 85.3469 41.1739C85.2253 41.2959 85.1288 41.4408 85.063 41.6002C84.9972 41.7597 84.9633 41.9305 84.9634 42.1031V42.4623H72.5201V24.3286H104.638V42.4623ZM106.306 42.4623V24.3286H114.973L113.665 42.4623H106.306Z" fill="#3F3D56"/>
<path d="M173.357 119.4C173.355 119.406 173.353 119.41 173.351 119.417C173.336 119.461 173.321 119.502 173.304 119.547V119.549C172.581 121.585 171.787 123.588 170.922 125.556L7.46046 125.378C6.583 123.369 5.77761 121.323 5.04428 119.24C5.0419 119.236 5.04046 119.231 5.04004 119.226L173.357 119.4Z" fill="#3F3D56"/>
<path d="M112.27 120.099H83.6572V123.926H112.27V120.099Z" fill="white"/>
<path d="M45.7822 157.573C45.884 156.673 46.0246 155.78 46.204 154.892C47.1848 150.077 49.2898 145.565 52.3462 141.724C54.0947 141.822 55.6271 141.554 55.7734 138.157C55.8009 137.553 56.2481 137.028 56.3456 136.433C56.1803 136.456 56.0086 136.469 55.8433 136.48C55.7903 136.482 55.7352 136.486 55.6843 136.488H55.6653C55.4817 136.497 55.2996 136.452 55.141 136.359C54.9823 136.266 54.8539 136.129 54.7711 135.964C54.6884 135.8 54.655 135.615 54.6749 135.432C54.6948 135.248 54.7671 135.075 54.8832 134.932C54.9552 134.845 55.0273 134.756 55.0994 134.666C55.2075 134.528 55.3198 134.394 55.43 134.258C55.4427 134.243 55.4533 134.231 55.466 134.216C55.5911 134.06 55.7161 133.905 55.8433 133.75C55.6135 133.392 55.3046 133.093 54.9404 132.874C53.6793 132.132 51.9393 132.647 51.0279 133.79C50.1144 134.934 49.9406 136.541 50.2585 137.97C50.5298 139.194 51.1211 140.317 51.7845 141.384C51.7167 141.471 51.6446 141.556 51.5768 141.646C50.3268 143.258 49.2372 144.99 48.3235 146.816C48.582 144.79 45.4219 137.477 44.199 135.927C42.7302 134.067 39.7206 134.879 39.462 137.239C39.4599 137.26 39.4556 137.283 39.4535 137.307C39.6358 137.409 39.8138 137.517 39.9876 137.634C40.2059 137.78 40.3751 137.989 40.4729 138.234C40.5708 138.478 40.5927 138.747 40.5359 139.004C40.4791 139.261 40.3462 139.495 40.1545 139.675C39.9629 139.855 39.7215 139.973 39.462 140.013L39.4344 140.017C37.0055 143.497 44.7946 152.556 46.7466 150.523C46.2558 151.907 45.8641 153.323 45.5745 154.762C45.3146 156.032 45.1334 157.316 45.0319 158.608C44.9083 160.235 44.9161 161.87 45.0553 163.495C45.0514 163.476 45.0486 163.457 45.0468 163.438C44.6123 159.896 37.1793 154.63 35.009 155.068C33.7585 155.321 32.5271 155.264 32.7179 156.529C32.72 156.55 32.7242 156.569 32.7264 156.591C33.0634 156.727 33.3912 156.885 33.7077 157.065C33.8899 157.167 34.068 157.277 34.2418 157.392C34.4462 157.529 34.6078 157.721 34.708 157.947C34.8082 158.172 34.8429 158.421 34.8082 158.665C34.7734 158.909 34.6705 159.139 34.5114 159.327C34.3524 159.515 34.1435 159.654 33.909 159.728C34.831 160.458 35.7671 161.17 36.7173 161.867C36.8678 161.978 37.0183 162.088 37.1709 162.194C38.4108 163.092 39.6754 163.956 40.9647 164.788C42.5373 165.804 44.1439 166.772 45.7843 167.692C46.009 167.817 46.2337 167.943 46.4605 168.066C45.8903 165.713 45.6014 163.3 45.6 160.878C45.5994 159.774 45.6602 158.67 45.7822 157.573ZM46.9416 149.977L46.9458 149.971C46.9457 149.974 46.9442 149.978 46.9416 149.981V149.977ZM45.2524 165.264L45.1867 165.117C45.1888 165.009 45.1888 164.903 45.1867 164.792C45.1867 164.762 45.1803 164.733 45.1803 164.703C45.2057 164.892 45.2269 165.081 45.2545 165.271L45.2524 165.264ZM54.987 165.553C55.0103 165.456 55.0294 165.387 55.0527 165.29C55.0443 165.268 55.0358 165.247 55.0273 165.228C54.3215 163.542 50.5955 166.941 48.9847 169.401C50.871 170.358 52.7948 171.249 54.756 172.076C54.8874 171.91 55.0231 171.746 55.1566 171.58C55.1693 171.565 55.1799 171.553 55.1905 171.538C55.4787 171.181 55.7691 170.828 56.0552 170.47C56.0574 170.4 56.0574 170.33 56.0574 170.262C56.0545 169.238 55.9293 168.218 55.6843 167.224C55.4875 167.233 55.2926 167.182 55.126 167.076C54.9595 166.97 54.8293 166.816 54.7532 166.633C54.6771 166.451 54.6588 166.25 54.7006 166.056C54.7424 165.863 54.8424 165.688 54.987 165.553Z" fill="white"/>
<path d="M100.835 121.308C101.344 121.66 101.924 121.896 102.533 121.999C103.143 122.102 103.768 122.07 104.363 121.905C104.959 121.74 105.512 121.445 105.982 121.043C106.452 120.64 106.828 120.139 107.085 119.574L122.047 120.978L118.374 114.066L104.728 113.793C103.755 113.424 102.68 113.426 101.708 113.799C100.735 114.172 99.9334 114.89 99.4535 115.816C98.9736 116.742 98.8492 117.813 99.1038 118.825C99.3584 119.838 99.9744 120.721 100.835 121.308Z" fill="#FFB6B6"/>
<path d="M116.007 120.835L136.712 123.164L136.783 123.072C136.92 122.897 150.468 105.502 152.744 101.362C154.144 98.8738 154.654 95.9804 154.189 93.1618L154.174 93.0929L154.12 93.0472C153.016 92.1194 151.63 91.5965 150.19 91.5649C148.751 91.5332 147.343 91.9946 146.2 92.873C140.703 97.1434 136.27 102.637 133.252 108.92L131.54 112.496L116.007 114.032V120.835Z" fill="#007CEE"/>
<path d="M99.2085 169.485L95.2197 178.8C94.6475 178.841 94.0745 178.873 93.5008 178.898C93.0473 178.921 92.5958 178.938 92.1401 178.951L91.9854 179L91.8582 178.96C91.2457 178.979 90.6311 178.991 90.0143 178.996C89.7536 178.998 89.4929 179 89.2301 179C89.1072 179 88.9843 179 88.8613 178.998L89.1263 178.088L89.4378 177.01L90.6756 172.741L92.4623 166.578L95.1201 167.722L99.2085 169.485Z" fill="#FFB6B6"/>
<path d="M127.95 170.156C125.9 171.149 123.809 172.063 121.676 172.897L119.591 169.378L126.314 166.417L127.95 170.156Z" fill="#FFB6B6"/>
<path d="M142.136 154.165V161.576C140.896 162.495 139.631 163.38 138.342 164.234V154.165H142.136Z" fill="#CACACA"/>
<path d="M155.463 149.471C154.397 150.658 153.299 151.813 152.169 152.939C149.511 155.595 146.688 158.08 143.717 160.379H126.804C126.355 160.379 125.911 160.283 125.502 160.097C125.093 159.912 124.728 159.64 124.432 159.302L124.43 159.295C124.077 158.896 123.832 158.413 123.718 157.892L123.716 157.888C123.668 157.664 123.644 157.436 123.644 157.208V152.643C123.644 151.803 123.977 150.996 124.57 150.402C125.162 149.807 125.966 149.473 126.804 149.471H155.463Z" fill="#3F3D56"/>
<path d="M162.431 131.657L160.598 139.535C160.777 140.677 160.837 141.834 160.776 142.988C159.907 144.157 159.011 145.303 158.087 146.425C157.235 147.46 156.36 148.476 155.463 149.471C154.397 150.658 153.299 151.813 152.169 152.939C149.227 153.866 145.76 154.244 142.136 154.27C140.885 154.28 139.616 154.246 138.342 154.178C133.177 153.906 127.952 153.075 123.673 152.212C122.541 151.986 121.477 151.757 120.498 151.534C118.643 151.115 117.092 150.724 115.969 150.426C114.703 150.094 113.983 149.88 113.983 149.88L109.169 157.964L104.799 165.303L99.1677 172.512C98.6294 172.561 98.0903 172.602 97.5506 172.635C96.9783 172.676 96.4054 172.708 95.8317 172.733C95.3782 172.756 94.9267 172.773 94.471 172.786L94.3163 172.835L94.1891 172.795L92.146 172.142L91.4571 171.923L88.9795 171.132C88.9795 171.132 89.5327 169.385 90.5013 166.47C90.8573 165.401 93.3795 157.495 96.0182 150.592C96.8003 148.542 97.6099 146.463 98.4429 144.395C99.1253 142.696 99.8205 141.004 100.524 139.335C101.747 136.442 107.656 134.882 114.614 134.063C114.968 134.023 115.324 133.982 115.683 133.944C119.228 133.57 122.99 133.376 126.509 133.287C128.27 133.242 129.97 133.225 131.551 133.223C132.062 133.223 132.558 133.225 133.041 133.228H133.043C134.346 133.234 135.546 133.253 136.602 133.274C136.807 133.279 137.006 133.285 137.201 133.289H137.204C137.335 133.291 137.464 133.296 137.591 133.298C139.899 133.357 141.315 133.43 141.315 133.43L141.864 129.11L141.977 128.238L142.083 127.409V127.407L142.095 127.303L142.182 127.301L143.708 127.271L156.535 127.02L161.999 126.788L162.431 131.657Z" fill="#2F2E41"/>
<path d="M127.623 166.606C127.1 166.874 126.572 167.138 126.042 167.393C123.993 168.385 121.902 169.299 119.769 170.133C119.16 170.373 118.55 170.605 117.933 170.828C117.865 170.732 117.795 170.637 117.726 170.541C114.784 166.491 112.952 163.91 109.169 157.964C107.586 155.477 105.994 152.884 104.449 150.235L115.636 144.996L116.89 144.41L120.498 151.534L123.715 157.888L124.431 159.302L127.623 166.606Z" fill="#2F2E41"/>
<path d="M145.769 80.795C151.461 80.795 156.075 76.1669 156.075 70.4578C156.075 64.7487 151.461 60.1206 145.769 60.1206C140.077 60.1206 135.463 64.7487 135.463 70.4578C135.463 76.1669 140.077 80.795 145.769 80.795Z" fill="#FFB6B6"/>
<path d="M164.165 102.589C164.08 94.0518 164.33 96.5242 163.656 93.5841C161.846 85.6801 154.333 84.2387 153.023 84.0601C152.883 83.6876 152.669 83.3478 152.393 83.062C152.117 82.7761 151.785 82.5503 151.418 82.3985C151.052 82.2468 150.658 82.1724 150.261 82.1799C149.864 82.1874 149.473 82.2768 149.113 82.4423L146.605 83.7467C144.174 84.8627 145.649 86.4751 144.81 89.0198L143.928 91.7197L136.703 111.752L138.166 119.373L138.168 119.377L139.153 124.511L142.075 127.851L142.021 127.318L141.955 127.42L141.953 127.422L141.783 127.675C142.019 127.804 142.252 127.932 142.481 128.06C143.074 128.387 143.653 128.708 144.217 129.023C144.352 129.099 144.486 129.174 144.619 129.25H144.621C144.706 129.297 144.791 129.344 144.874 129.39C146.989 130.577 139.16 132.737 140.9 133.751C141.141 133.891 141.381 134.031 141.616 134.169C149.628 138.87 156.02 144.724 158.086 146.425C159.01 145.303 159.907 144.157 160.776 142.988C161.564 141.931 162.328 140.856 163.067 139.763C163.196 138.908 163.283 138.053 163.368 137.216C163.47 136.208 162.94 126.873 163.118 125.847C163.196 125.392 162.895 124.96 162.605 124.543C162.336 124.154 162.082 123.789 162.135 123.444C162.19 123.089 162.58 122.702 162.959 122.326C163.372 121.914 163.8 121.488 163.862 121.04C164.031 119.79 163.334 118.536 163.466 117.277C163.682 115.23 163.848 113.176 163.964 111.116C164.127 108.272 164.194 105.43 164.165 102.589Z" fill="#007CEE"/>
<path d="M106.036 123.527C106.461 123.077 106.98 122.727 107.555 122.499C108.131 122.272 108.749 122.175 109.366 122.213C109.983 122.251 110.584 122.425 111.127 122.722C111.669 123.018 112.141 123.431 112.508 123.93L126.859 119.459L124.687 126.983L111.392 130.075C110.515 130.637 109.463 130.858 108.435 130.694C107.407 130.531 106.475 129.994 105.814 129.187C105.154 128.38 104.812 127.358 104.853 126.315C104.894 125.272 105.315 124.28 106.036 123.527Z" fill="#FFB6B6"/>
<path d="M123.435 127.689L150.072 122.181L143.159 123.898C143.238 123.691 151.007 103.039 151.951 98.406C152.55 95.6129 152.178 92.6984 150.897 90.1465L150.862 90.0854L150.797 90.0578C149.467 89.5017 147.989 89.4166 146.605 89.8163C145.221 90.2161 144.015 91.0769 143.184 92.2569C139.204 97.9754 136.603 104.543 135.587 111.443L135.014 115.368L125.623 118.186L123.435 127.689Z" fill="#007CEE"/>
<path d="M73.7914 119.277C73.8848 119.55 74.0619 119.786 74.2974 119.951C74.5328 120.117 74.8145 120.203 75.1019 120.198L80.7167 120.053C81.0063 120.047 81.2862 119.948 81.5147 119.769C81.7432 119.591 81.9079 119.343 81.9844 119.063L82.7789 110.541C83.0608 110.669 83.3677 110.732 83.6771 110.726C84.2201 110.712 84.7353 110.483 85.1096 110.088C85.4838 109.693 85.6864 109.166 85.6728 108.621C85.6592 108.076 85.4304 107.56 85.0369 107.184C84.6434 106.809 84.1173 106.606 83.5744 106.619C83.4507 106.619 83.3273 106.632 83.2064 106.658C83.0749 106.515 82.915 106.401 82.7371 106.324C82.5592 106.247 82.3671 106.209 82.1734 106.211L73.5365 106.434C73.4648 106.437 73.3935 106.446 73.3234 106.461C73.134 106.496 72.9544 106.572 72.7966 106.683C72.6388 106.794 72.5065 106.937 72.4086 107.104C72.3108 107.27 72.2496 107.456 72.2292 107.648C72.2089 107.84 72.2298 108.034 72.2906 108.218L73.7914 119.277ZM82.9419 109.962L83.5073 107.931C83.5716 107.697 83.5731 107.449 83.5116 107.214C83.539 107.214 83.5632 107.201 83.5907 107.201C83.9783 107.193 84.3534 107.339 84.6335 107.608C84.9137 107.877 85.0761 108.246 85.0852 108.635C85.0943 109.024 84.9492 109.4 84.6819 109.682C84.4146 109.964 84.0469 110.128 83.6592 110.138C83.4086 110.146 83.1606 110.085 82.9419 109.962Z" fill="#2F2E41"/>
<path d="M73.3232 106.461C73.5072 107.516 75.576 108.258 78.0636 108.129C80.3511 108.023 82.2214 107.218 82.5641 106.263C82.4373 106.225 82.3054 106.208 82.1732 106.211L73.5363 106.434C73.4646 106.437 73.3934 106.446 73.3232 106.461Z" fill="#3F3D56"/>
<path d="M35.7646 98.7461V116.966C35.7648 117.198 35.8569 117.421 36.0206 117.585C36.1842 117.749 36.4062 117.841 36.6377 117.841H63.5557C63.7872 117.841 64.0092 117.749 64.1729 117.585C64.3365 117.421 64.4286 117.198 64.4288 116.966V98.7461C64.4282 98.5141 64.336 98.2918 64.1724 98.1279C64.0088 97.9639 63.787 97.8717 63.5557 97.8714H36.6377C36.4064 97.8717 36.1846 97.9639 36.021 98.1279C35.8574 98.2918 35.7652 98.5141 35.7646 98.7461Z" fill="#3F3D56"/>
<path d="M36.3955 98.9728V116.741C36.3957 116.865 36.445 116.984 36.5324 117.072C36.6199 117.159 36.7384 117.209 36.8621 117.209H63.331C63.4547 117.209 63.5733 117.159 63.6607 117.072C63.7482 116.984 63.7974 116.865 63.7976 116.741V98.9728C63.7976 98.8486 63.7485 98.7295 63.661 98.6416C63.5735 98.5536 63.4549 98.5041 63.331 98.5038H36.8621C36.7383 98.5041 36.6196 98.5536 36.5321 98.6416C36.4447 98.7295 36.3955 98.8486 36.3955 98.9728Z" fill="#007CEE"/>
<path d="M35.2013 120.519C35.2506 120.581 35.3133 120.631 35.3846 120.665C35.456 120.7 35.5341 120.717 35.6132 120.717H64.4361C64.515 120.717 64.5928 120.699 64.6639 120.665C64.735 120.631 64.7977 120.581 64.8474 120.52C64.897 120.458 64.9324 120.387 64.951 120.31C64.9695 120.233 64.9707 120.153 64.9546 120.076L64.5071 117.944C64.4886 117.857 64.4487 117.776 64.391 117.709C64.3333 117.641 64.2597 117.589 64.1769 117.558C64.1169 117.534 64.0531 117.522 63.9887 117.522H36.0588C35.9944 117.522 35.9306 117.534 35.8706 117.558C35.7878 117.589 35.7142 117.641 35.6565 117.709C35.5989 117.776 35.5589 117.857 35.5404 117.944L35.093 120.076C35.0771 120.153 35.0785 120.233 35.0973 120.31C35.116 120.386 35.1515 120.458 35.2013 120.519Z" fill="#2F2E41"/>
<path d="M62.9999 118.44H63.6807C63.7379 118.44 63.7842 118.394 63.7842 118.336V118.01C63.7842 117.952 63.7379 117.906 63.6807 117.906H62.9999C62.9428 117.906 62.8964 117.952 62.8964 118.01V118.336C62.8964 118.394 62.9428 118.44 62.9999 118.44Z" fill="#3F3D56"/>
<path d="M61.2245 118.44H61.9053C61.9625 118.44 62.0088 118.394 62.0088 118.336V118.01C62.0088 117.952 61.9625 117.906 61.9053 117.906H61.2245C61.1674 117.906 61.1211 117.952 61.1211 118.01V118.336C61.1211 118.394 61.1674 118.44 61.2245 118.44Z" fill="#3F3D56"/>
<path d="M59.4491 118.44H60.1299C60.1871 118.44 60.2334 118.394 60.2334 118.336V118.01C60.2334 117.952 60.1871 117.906 60.1299 117.906H59.4491C59.392 117.906 59.3457 117.952 59.3457 118.01V118.336C59.3457 118.394 59.392 118.44 59.4491 118.44Z" fill="#3F3D56"/>
<path d="M57.6737 118.44H58.3545C58.4117 118.44 58.458 118.394 58.458 118.336V118.01C58.458 117.952 58.4117 117.906 58.3545 117.906H57.6737C57.6166 117.906 57.5703 117.952 57.5703 118.01V118.336C57.5703 118.394 57.6166 118.44 57.6737 118.44Z" fill="#3F3D56"/>
<path d="M55.8984 118.44H56.5791C56.6363 118.44 56.6826 118.394 56.6826 118.336V118.01C56.6826 117.952 56.6363 117.906 56.5791 117.906H55.8984C55.8412 117.906 55.7949 117.952 55.7949 118.01V118.336C55.7949 118.394 55.8412 118.44 55.8984 118.44Z" fill="#3F3D56"/>
<path d="M54.123 118.44H54.8038C54.8609 118.44 54.9072 118.394 54.9072 118.336V118.01C54.9072 117.952 54.8609 117.906 54.8038 117.906H54.123C54.0658 117.906 54.0195 117.952 54.0195 118.01V118.336C54.0195 118.394 54.0658 118.44 54.123 118.44Z" fill="#3F3D56"/>
<path d="M52.3466 118.44H53.0274C53.0845 118.44 53.1309 118.394 53.1309 118.336V118.01C53.1309 117.952 53.0845 117.906 53.0274 117.906H52.3466C52.2894 117.906 52.2431 117.952 52.2431 118.01V118.336C52.2431 118.394 52.2894 118.44 52.3466 118.44Z" fill="#3F3D56"/>
<path d="M50.5712 118.44H51.252C51.3091 118.44 51.3555 118.394 51.3555 118.336V118.01C51.3555 117.952 51.3091 117.906 51.252 117.906H50.5712C50.5141 117.906 50.4677 117.952 50.4677 118.01V118.336C50.4677 118.394 50.5141 118.44 50.5712 118.44Z" fill="#3F3D56"/>
<path d="M48.7958 118.44H49.4766C49.5337 118.44 49.5801 118.394 49.5801 118.336V118.01C49.5801 117.952 49.5337 117.906 49.4766 117.906H48.7958C48.7387 117.906 48.6923 117.952 48.6923 118.01V118.336C48.6923 118.394 48.7387 118.44 48.7958 118.44Z" fill="#3F3D56"/>
<path d="M47.0204 118.44H47.7012C47.7584 118.44 47.8047 118.394 47.8047 118.336V118.01C47.8047 117.952 47.7584 117.906 47.7012 117.906H47.0204C46.9633 117.906 46.917 117.952 46.917 118.01V118.336C46.917 118.394 46.9633 118.44 47.0204 118.44Z" fill="#3F3D56"/>
<path d="M45.245 118.44H45.9258C45.983 118.44 46.0293 118.394 46.0293 118.336V118.01C46.0293 117.952 45.983 117.906 45.9258 117.906H45.245C45.1879 117.906 45.1416 117.952 45.1416 118.01V118.336C45.1416 118.394 45.1879 118.44 45.245 118.44Z" fill="#3F3D56"/>
<path d="M43.4696 118.44H44.1504C44.2076 118.44 44.2539 118.394 44.2539 118.336V118.01C44.2539 117.952 44.2076 117.906 44.1504 117.906H43.4696C43.4125 117.906 43.3662 117.952 43.3662 118.01V118.336C43.3662 118.394 43.4125 118.44 43.4696 118.44Z" fill="#3F3D56"/>
<path d="M41.6943 118.44H42.375C42.4322 118.44 42.4785 118.394 42.4785 118.336V118.01C42.4785 117.952 42.4322 117.906 42.375 117.906H41.6943C41.6371 117.906 41.5908 117.952 41.5908 118.01V118.336C41.5908 118.394 41.6371 118.44 41.6943 118.44Z" fill="#3F3D56"/>
<path d="M39.9189 118.44H40.5997C40.6568 118.44 40.7031 118.394 40.7031 118.336V118.01C40.7031 117.952 40.6568 117.906 40.5997 117.906H39.9189C39.8617 117.906 39.8154 117.952 39.8154 118.01V118.336C39.8154 118.394 39.8617 118.44 39.9189 118.44Z" fill="#3F3D56"/>
<path d="M38.1435 118.44H38.8243C38.8814 118.44 38.9277 118.394 38.9277 118.336V118.01C38.9277 117.952 38.8814 117.906 38.8243 117.906H38.1435C38.0863 117.906 38.04 117.952 38.04 118.01V118.336C38.04 118.394 38.0863 118.44 38.1435 118.44Z" fill="#3F3D56"/>
<path d="M36.3681 118.44H37.0489C37.106 118.44 37.1523 118.394 37.1523 118.336V118.01C37.1523 117.952 37.106 117.906 37.0489 117.906H36.3681C36.3109 117.906 36.2646 117.952 36.2646 118.01V118.336C36.2646 118.394 36.3109 118.44 36.3681 118.44Z" fill="#3F3D56"/>
<path d="M63.0204 119.331H63.7012C63.7584 119.331 63.8047 119.284 63.8047 119.227V118.9C63.8047 118.843 63.7584 118.796 63.7012 118.796H63.0204C62.9633 118.796 62.917 118.843 62.917 118.9V119.227C62.917 119.284 62.9633 119.331 63.0204 119.331Z" fill="#3F3D56"/>
<path d="M61.245 119.331H61.9258C61.983 119.331 62.0293 119.284 62.0293 119.227V118.9C62.0293 118.843 61.983 118.796 61.9258 118.796H61.245C61.1879 118.796 61.1416 118.843 61.1416 118.9V119.227C61.1416 119.284 61.1879 119.331 61.245 119.331Z" fill="#3F3D56"/>
<path d="M59.4696 119.331H60.1504C60.2076 119.331 60.2539 119.284 60.2539 119.227V118.9C60.2539 118.843 60.2076 118.796 60.1504 118.796H59.4696C59.4125 118.796 59.3662 118.843 59.3662 118.9V119.227C59.3662 119.284 59.4125 119.331 59.4696 119.331Z" fill="#3F3D56"/>
<path d="M57.6943 119.331H58.375C58.4322 119.331 58.4785 119.284 58.4785 119.227V118.9C58.4785 118.843 58.4322 118.796 58.375 118.796H57.6943C57.6371 118.796 57.5908 118.843 57.5908 118.9V119.227C57.5908 119.284 57.6371 119.331 57.6943 119.331Z" fill="#3F3D56"/>
<path d="M55.9189 119.331H56.5997C56.6568 119.331 56.7031 119.284 56.7031 119.227V118.9C56.7031 118.843 56.6568 118.796 56.5997 118.796H55.9189C55.8617 118.796 55.8154 118.843 55.8154 118.9V119.227C55.8154 119.284 55.8617 119.331 55.9189 119.331Z" fill="#3F3D56"/>
<path d="M54.1435 119.331H54.8243C54.8814 119.331 54.9277 119.284 54.9277 119.227V118.9C54.9277 118.843 54.8814 118.796 54.8243 118.796H54.1435C54.0863 118.796 54.04 118.843 54.04 118.9V119.227C54.04 119.284 54.0863 119.331 54.1435 119.331Z" fill="#3F3D56"/>
<path d="M52.3681 119.331H53.0489C53.106 119.331 53.1523 119.284 53.1523 119.227V118.9C53.1523 118.843 53.106 118.796 53.0489 118.796H52.3681C52.3109 118.796 52.2646 118.843 52.2646 118.9V119.227C52.2646 119.284 52.3109 119.331 52.3681 119.331Z" fill="#3F3D56"/>
<path d="M50.5927 119.331H51.2735C51.3306 119.331 51.377 119.284 51.377 119.227V118.9C51.377 118.843 51.3306 118.796 51.2735 118.796H50.5927C50.5355 118.796 50.4892 118.843 50.4892 118.9V119.227C50.4892 119.284 50.5355 119.331 50.5927 119.331Z" fill="#3F3D56"/>
<path d="M48.8173 119.331H49.4981C49.5552 119.331 49.6016 119.284 49.6016 119.227V118.9C49.6016 118.843 49.5552 118.796 49.4981 118.796H48.8173C48.7602 118.796 48.7138 118.843 48.7138 118.9V119.227C48.7138 119.284 48.7602 119.331 48.8173 119.331Z" fill="#3F3D56"/>
<path d="M47.0419 119.331H47.7227C47.7798 119.331 47.8262 119.284 47.8262 119.227V118.9C47.8262 118.843 47.7798 118.796 47.7227 118.796H47.0419C46.9848 118.796 46.9384 118.843 46.9384 118.9V119.227C46.9384 119.284 46.9848 119.331 47.0419 119.331Z" fill="#3F3D56"/>
<path d="M45.2665 119.331H45.9473C46.0045 119.331 46.0508 119.284 46.0508 119.227V118.9C46.0508 118.843 46.0045 118.796 45.9473 118.796H45.2665C45.2094 118.796 45.163 118.843 45.163 118.9V119.227C45.163 119.284 45.2094 119.331 45.2665 119.331Z" fill="#3F3D56"/>
<path d="M43.4911 119.331H44.1719C44.2291 119.331 44.2754 119.284 44.2754 119.227V118.9C44.2754 118.843 44.2291 118.796 44.1719 118.796H43.4911C43.434 118.796 43.3877 118.843 43.3877 118.9V119.227C43.3877 119.284 43.434 119.331 43.4911 119.331Z" fill="#3F3D56"/>
<path d="M41.7148 119.331H42.3956C42.4527 119.331 42.499 119.284 42.499 119.227V118.9C42.499 118.843 42.4527 118.796 42.3956 118.796H41.7148C41.6576 118.796 41.6113 118.843 41.6113 118.9V119.227C41.6113 119.284 41.6576 119.331 41.7148 119.331Z" fill="#3F3D56"/>
<path d="M39.9394 119.331H40.6202C40.6773 119.331 40.7236 119.284 40.7236 119.227V118.9C40.7236 118.843 40.6773 118.796 40.6202 118.796H39.9394C39.8822 118.796 39.8359 118.843 39.8359 118.9V119.227C39.8359 119.284 39.8822 119.331 39.9394 119.331Z" fill="#3F3D56"/>
<path d="M38.164 119.331H38.8448C38.9019 119.331 38.9482 119.284 38.9482 119.227V118.9C38.9482 118.843 38.9019 118.796 38.8448 118.796H38.164C38.1068 118.796 38.0605 118.843 38.0605 118.9V119.227C38.0605 119.284 38.1068 119.331 38.164 119.331Z" fill="#3F3D56"/>
<path d="M36.3886 119.331H37.0694C37.1265 119.331 37.1729 119.284 37.1729 119.227V118.9C37.1729 118.843 37.1265 118.796 37.0694 118.796H36.3886C36.3314 118.796 36.2851 118.843 36.2851 118.9V119.227C36.2851 119.284 36.3314 119.331 36.3886 119.331Z" fill="#3F3D56"/>
<path d="M48.2848 120.399H55.1797C55.2369 120.399 55.2832 120.353 55.2832 120.295V119.969C55.2832 119.911 55.2369 119.865 55.1797 119.865H48.2848C48.2277 119.865 48.1813 119.911 48.1813 119.969V120.295C48.1813 120.353 48.2277 120.399 48.2848 120.399Z" fill="#3F3D56"/>
<path d="M100.242 119.528L112.289 108.964C112.862 108.462 111.77 109.958 112.27 110.533C112.771 111.107 114.675 110.542 114.103 111.045L102.056 121.609L99.0049 122.308L100.242 119.528Z" fill="#3F3D56"/>
<path d="M100.242 119.528L100.534 119.272C100.924 119.468 101.272 119.739 101.558 120.069C101.897 120.457 102.143 120.917 102.278 121.414L102.056 121.609L99.6242 122.166L99.0049 122.308L99.2631 121.725L100.242 119.528Z" fill="#CCCCCC"/>
<path d="M99.2631 121.725C99.3534 121.765 99.4331 121.826 99.4958 121.902C99.5585 121.979 99.6025 122.069 99.6242 122.165L99.0049 122.308L99.2631 121.725Z" fill="#3F3D56"/>
<path d="M178.844 85.6689C177.708 87.3739 175.889 88.5537 173.931 89.1384C173.136 89.3758 172.314 89.5157 171.485 89.555C171.383 88.6147 171.138 87.6956 170.758 86.8296C170.797 87.7514 170.669 88.6725 170.381 89.5487C169.136 89.4779 167.919 89.1508 166.805 88.5878C164.633 87.4717 162.961 85.3373 162.59 82.9159C162.153 80.0885 163.431 77.3121 163.893 74.4889C164.357 71.6657 163.486 68.09 160.731 67.348C158.633 66.7826 158.868 67.027 157.124 68.3259C158.938 71.0169 152.236 80.8782 149.494 80.0183C147.943 79.5321 146.95 78.105 146.63 78.105C144.475 81.8296 148.534 88.1052 144.443 89.4083L144.78 89.0703C147.249 86.0239 142.088 79.5761 144.558 76.5297C145.246 75.6773 145.98 74.6675 145.776 73.5896C145.583 72.565 143.962 72.0229 143.487 72.8647C144.341 70.9025 143.08 68.2834 140.993 67.7796C139.138 67.331 139.172 67.8838 137.311 68.124C137.189 67.3173 136.962 66.5303 136.635 65.7834C136.669 66.5882 136.575 67.3934 136.357 68.1686C135.7 68.1557 135.065 67.9256 134.552 67.5139C133.034 66.2872 133.341 63.7106 134.696 62.3054C136.052 60.9002 138.068 60.3943 139.99 60.0669C140.549 56.1636 151.286 55.7564 152.709 59.6566C153.315 56.7441 156.95 55.2326 159.775 56.1361C162.6 57.0396 164.561 59.6864 165.593 62.4755C166.625 65.2625 166.914 68.2622 167.549 71.1661C168.185 74.0701 169.26 77.0272 171.473 79.0064C173.685 80.9835 177.29 81.6382 179.622 79.8015C180.357 81.7148 179.978 83.9618 178.844 85.6689Z" fill="#2F2E41"/>
</g>
<defs>
<clipPath id="clip0_97_493">
<rect width="180" height="179" fill="white"/>
</clipPath>
</defs>
</svg>
