<svg width="173" height="163" viewBox="0 0 173 163" fill="none" xmlns="http://www.w3.org/2000/svg">
<g clip-path="url(#clip0_137_903)">
<path d="M134.241 34.6623L136.953 35.9505C135.841 34.3939 134.882 31.9628 134.369 30.0283C133.5 31.8303 132.099 34.0352 130.713 35.3522L133.579 34.6128C131.813 43.2926 125.169 49.5238 117.561 49.5238L117.453 49.8374C125.4 49.8374 132.437 43.6925 134.241 34.6623Z" fill="#3F3D56"/>
<path d="M126.041 21.437H143.179C143.905 21.437 144.497 22.0299 144.497 22.7587C144.497 23.4875 143.905 24.0805 143.179 24.0805H126.041C125.314 24.0805 124.723 23.4875 124.723 22.7587C124.723 22.0299 125.314 21.437 126.041 21.437Z" fill="#3F3D56"/>
<path d="M87.3109 51.1249C89.3542 49.4321 91.8817 49.117 92.956 50.421C94.0303 51.725 93.2446 54.1539 91.2003 55.847C90.3929 56.5346 89.433 57.0183 88.401 57.2577L79.6529 64.3207L76.4346 60.1341L85.4004 53.6157C85.8297 52.6444 86.4848 51.7903 87.3109 51.1249Z" fill="#FFB6B6"/>
<path d="M36.7474 67.0609C36.743 66.7485 36.7459 64.0239 38.7578 62.3018C41.0688 60.3236 44.3299 61.1243 45.4736 61.4051C48.1158 62.0539 48.3325 63.1902 50.8137 64.3579C55.4559 66.5424 49.6394 65.4242 52.4016 64.7238C53.3578 64.4813 67.113 63.5248 70.537 61.412C77.1961 57.3027 81.7334 54.8108 81.7334 54.8108L84.6996 60.7586C84.6996 60.7586 80.4105 66.738 74.3741 71.1676C68.1821 75.7114 65.086 77.9833 60.3809 78.8611C59.9758 78.9367 50.0107 80.6426 41.9847 74.6306C40.154 73.2593 36.7997 70.7468 36.7474 67.0609Z" fill="#E6E6E6"/>
<path opacity="0.2" d="M93.6639 60.6232C98.2385 60.6232 101.947 56.9051 101.947 52.3185C101.947 47.7319 98.2385 44.0138 93.6639 44.0138C89.0893 44.0138 85.3809 47.7319 85.3809 52.3185C85.3809 56.9051 89.0893 60.6232 93.6639 60.6232Z" fill="#007CEE"/>
<path d="M101.622 64.3196C106.197 64.3196 109.905 60.6015 109.905 56.0149C109.905 51.4284 106.197 47.7102 101.622 47.7102C97.0473 47.7102 93.3389 51.4284 93.3389 56.0149C93.3389 60.6015 97.0473 64.3196 101.622 64.3196Z" fill="white"/>
<path opacity="0.5" d="M101.622 64.3196C106.197 64.3196 109.905 60.6015 109.905 56.0149C109.905 51.4284 106.197 47.7102 101.622 47.7102C97.0473 47.7102 93.3389 51.4284 93.3389 56.0149C93.3389 60.6015 97.0473 64.3196 101.622 64.3196Z" fill="#007CEE"/>
<path d="M110.021 68.2213C114.596 68.2213 118.304 64.5031 118.304 59.9165C118.304 55.33 114.596 51.6118 110.021 51.6118C105.447 51.6118 101.738 55.33 101.738 59.9165C101.738 64.5031 105.447 68.2213 110.021 68.2213Z" fill="white"/>
<path opacity="0.8" d="M110.021 68.2213C114.596 68.2213 118.304 64.5031 118.304 59.9165C118.304 55.33 114.596 51.6118 110.021 51.6118C105.447 51.6118 101.738 55.33 101.738 59.9165C101.738 64.5031 105.447 68.2213 110.021 68.2213Z" fill="#007CEE"/>
<path d="M117.537 71.7123C122.112 71.7123 125.82 67.9942 125.82 63.4076C125.82 58.8211 122.112 55.1029 117.537 55.1029C112.962 55.1029 109.254 58.8211 109.254 63.4076C109.254 67.9942 112.962 71.7123 117.537 71.7123Z" fill="#007CEE"/>
<path d="M54.7773 69.8857C54.3374 69.142 52.4343 69.9383 52.0844 69.2633C51.7358 68.5908 53.504 67.5662 54.5142 65.2254C54.6963 64.8032 55.8443 62.1431 54.9945 61.3222C53.3836 59.7664 46.0121 66.1871 43.4325 64.0859C42.8663 63.6248 42.4708 62.7043 40.7573 61.2097C40.0757 60.6151 39.6635 60.3467 39.2646 60.4466C38.6986 60.5883 38.6537 61.3478 38.0468 62.8412C37.1365 65.0809 36.5982 64.9456 36.0678 66.7325C35.6741 68.059 35.7641 68.8302 35.3008 68.9804C34.6452 69.193 34.0418 67.7861 33.2109 67.912C32.3631 68.0406 31.8506 69.6788 31.6887 70.9053C31.3848 73.207 32.2279 74.7258 32.6952 76.3229C33.203 78.0584 33.5044 80.6979 32.3317 84.4344L20.7246 117.223C23.2871 110.495 30.7067 92.0512 33.8244 85.1975C34.7245 83.219 35.7182 81.2121 37.7587 80.4201C39.7232 79.6575 42.4212 80.1128 45.8609 79.282C46.2626 79.185 47.3773 78.9006 47.5176 78.2432C47.6336 77.6997 46.9779 77.3964 47.0787 76.8873C47.2138 76.2046 48.5032 76.1962 50.0878 75.4085C51.2051 74.853 51.9012 74.1924 52.4998 73.6243C52.6803 73.4531 55.3629 70.8757 54.7773 69.8857Z" fill="#F2F2F2"/>
<path d="M9.11151 87.1469C8.62052 87.1488 8.46124 88.315 8.02989 88.2924C7.60008 88.27 7.60865 87.1042 6.75425 85.9317C6.60017 85.7203 5.62919 84.3878 4.98215 84.5692C3.75573 84.9129 4.77191 90.3929 2.99902 91.0561C2.60995 91.2017 2.04519 91.1307 0.819197 91.5426C0.331462 91.7065 0.0811234 91.8319 0.0149159 92.057C-0.0790248 92.3764 0.279835 92.6177 0.835767 93.3472C1.6695 94.4413 1.44795 94.6673 2.16965 95.4438C2.7054 96.0203 3.10888 96.1985 3.04874 96.4699C2.96367 96.8538 2.10081 96.7448 1.92276 97.19C1.74108 97.6443 2.39512 98.3692 2.94882 98.8027C3.98791 99.6164 4.97465 99.6397 5.89127 99.8706C6.88739 100.121 8.26643 100.735 9.75717 102.39L22.459 117.562C19.9048 114.36 13.017 105.387 10.5614 101.876C9.85259 100.862 9.15692 99.7937 9.35795 98.561C9.55148 97.3743 10.5528 96.178 11.1386 94.2457C11.207 94.02 11.3894 93.3894 11.1081 93.1307C10.8755 92.9168 10.5378 93.1519 10.3177 92.9555C10.0225 92.692 10.3904 92.055 10.462 91.048C10.5124 90.3379 10.3899 89.8048 10.2845 89.3463C10.2528 89.2081 9.7651 87.1444 9.11151 87.1469Z" fill="#F2F2F2"/>
<path d="M18.9071 89.3515L18.6113 86.7039L18.7465 86.5032C19.3719 85.5751 19.6907 84.6687 19.6945 83.8083C19.6951 83.6716 19.6887 83.5348 19.6824 83.3954C19.6569 82.8432 19.625 82.1567 19.982 81.3564C20.1822 80.9102 20.7445 79.8773 21.5899 80.0051C21.8175 80.0371 21.9896 80.1419 22.1203 80.2646C22.1394 80.2339 22.1592 80.2033 22.1802 80.17C22.4435 79.7673 22.652 79.5947 22.8528 79.4285C23.0071 79.3007 23.1665 79.169 23.4164 78.8571C23.5261 78.7203 23.6115 78.6001 23.6835 78.4992C23.9022 78.1936 24.1878 77.8293 24.6915 77.8357C25.2295 77.8612 25.5113 78.3074 25.6981 78.6027C26.0316 79.1294 26.1827 79.5091 26.2828 79.7609C26.3191 79.853 26.3605 79.9565 26.3816 79.9885C26.555 80.2442 27.9646 80.0051 28.4956 79.9182C29.6885 79.7187 30.7206 79.5462 31.1459 80.3004C31.4506 80.8399 31.2243 81.5532 30.4529 82.4775C30.2125 82.7652 29.9569 82.9838 29.7299 83.1551C29.918 83.2676 30.0863 83.4402 30.1545 83.7112C30.3152 84.353 29.765 84.996 28.5199 85.625C28.2107 85.7822 27.7944 85.9919 27.211 86.0929C26.9362 86.1402 26.6889 86.1517 26.4772 86.1581C26.4727 86.2808 26.4441 86.4138 26.3695 86.5505C26.1508 86.9532 25.6956 87.145 25.0096 87.099C24.2548 87.0593 23.6332 86.9149 23.0849 86.7883C22.6061 86.6784 22.1936 86.5851 21.8698 86.6068C21.2692 86.6554 20.8063 87.1373 20.2632 87.7625L18.9071 89.3515Z" fill="#F2F2F2"/>
<path d="M20.2791 73.5878L17.7998 74.5462L17.5719 74.466C16.5178 74.0949 15.5625 74.0157 14.7315 74.2302C14.5993 74.2643 14.469 74.3051 14.3362 74.3467C13.8098 74.5115 13.1556 74.7165 12.2929 74.5733C11.8117 74.4923 10.6725 74.209 10.5814 73.3567C10.5546 73.1278 10.612 72.9343 10.6973 72.7764C10.6628 72.7657 10.6282 72.7543 10.5908 72.7423C10.1355 72.5891 9.91612 72.4307 9.70484 72.2781C9.54237 72.1609 9.3749 72.0397 9.01057 71.8765C8.85079 71.8048 8.71319 71.7524 8.59748 71.7082C8.24724 71.5736 7.82328 71.389 7.7017 70.899C7.58989 70.3706 7.94886 69.9842 8.18638 69.7281C8.60996 69.2711 8.93794 69.0283 9.15552 68.8673C9.2351 68.8087 9.3245 68.7423 9.35 68.7138C9.55269 68.4807 8.96451 67.1743 8.74594 66.6813C8.25097 65.5751 7.82266 64.6179 8.44249 64.0141C8.88567 63.5817 9.6313 63.6203 10.7187 64.134C11.0572 64.2941 11.3329 64.4866 11.5558 64.6633C11.6166 64.4524 11.7404 64.2454 11.9846 64.1105C12.563 63.7919 13.3229 64.1623 14.2456 65.2103C14.4757 65.4703 14.7836 65.8209 15.029 66.361C15.1443 66.6155 15.2182 66.8525 15.278 67.0561C15.3976 67.0293 15.5331 67.0234 15.684 67.0611C16.128 67.171 16.4284 67.5638 16.558 68.2408C16.7113 68.9829 16.7296 69.6224 16.7465 70.1862C16.7619 70.6785 16.7765 71.1022 16.8796 71.4107C17.0788 71.9809 17.6612 72.3075 18.4021 72.6757L20.2791 73.5878Z" fill="#F2F2F2"/>
<path d="M18.9071 65.788L18.6113 63.1404L18.7465 62.9397C19.3719 62.0116 19.6907 61.1052 19.6945 60.2449C19.6951 60.1081 19.6887 59.9713 19.6824 59.8319C19.6569 59.2797 19.625 58.5932 19.982 57.7929C20.1822 57.3467 20.7445 56.3138 21.5899 56.4416C21.8175 56.4736 21.9896 56.5784 22.1203 56.7011C22.1394 56.6705 22.1592 56.6398 22.1802 56.6065C22.4435 56.2038 22.652 56.0313 22.8528 55.8651C23.0071 55.7372 23.1665 55.6056 23.4164 55.2936C23.5261 55.1568 23.6115 55.0367 23.6835 54.9357C23.9022 54.6301 24.1878 54.2658 24.6915 54.2722C25.2295 54.2977 25.5113 54.7439 25.6981 55.0392C26.0316 55.5659 26.1827 55.9456 26.2828 56.1974C26.3191 56.2895 26.3605 56.393 26.3816 56.425C26.555 56.6807 27.9646 56.4416 28.4956 56.3547C29.6885 56.1552 30.7206 55.9827 31.1459 56.7369C31.4506 57.2764 31.2243 57.9898 30.4529 58.9141C30.2125 59.2017 29.9569 59.4203 29.7299 59.5916C29.918 59.7041 30.0863 59.8767 30.1545 60.1477C30.3152 60.7895 29.765 61.4325 28.5199 62.0615C28.2107 62.2187 27.7944 62.4284 27.211 62.5294C26.9362 62.5767 26.6889 62.5882 26.4772 62.5946C26.4727 62.7173 26.4441 62.8503 26.3695 62.9871C26.1508 63.3898 25.6956 63.5815 25.0096 63.5355C24.2548 63.4959 23.6332 63.3514 23.0849 63.2248C22.6061 63.1149 22.1936 63.0216 21.8698 63.0433C21.2692 63.0919 20.8063 63.5739 20.2632 64.199L18.9071 65.788Z" fill="#F2F2F2"/>
<path d="M21.6087 117.18L21.0553 116.832L20.4101 116.906C20.3999 116.846 20.3648 116.708 20.3119 116.492C20.0231 115.308 19.1427 111.706 18.4083 106.032C17.8957 102.072 17.6056 97.9999 17.5457 93.9281C17.4857 89.85 17.6783 86.7627 17.8326 84.2813C17.9492 82.4097 18.0908 80.6277 18.2297 78.8916C18.5995 74.2535 18.9482 69.8725 18.6888 65.0222C18.6314 63.9394 18.5109 61.6856 17.1976 59.2873C16.4357 57.8964 15.3863 56.6615 14.0781 55.6183L14.8916 54.593C16.3356 55.7461 17.4966 57.114 18.3426 58.6583C19.7987 61.3174 19.9301 63.7732 19.9932 64.9532C20.2571 69.8891 19.9045 74.3124 19.5309 78.9952C19.3932 80.7248 19.2517 82.4992 19.1357 84.3632C18.9827 86.8215 18.7921 89.882 18.8513 93.9077C18.91 97.9308 19.1969 101.953 19.7025 105.863C20.428 111.465 21.2957 115.014 21.5806 116.18C21.7324 116.803 21.7642 116.933 21.6087 117.18Z" fill="#F2F2F2"/>
<path d="M11.6838 57.6983C11.6302 57.6983 11.576 57.697 11.5212 57.6931C10.4094 57.6331 9.37974 56.9657 8.46042 55.7103C8.02945 55.1197 7.80886 54.446 7.36896 53.1024C7.30074 52.8953 6.96922 51.8444 6.76776 50.3986C6.63579 49.4538 6.65237 49.0588 6.83917 48.7098C7.04637 48.3212 7.38171 48.0502 7.75913 47.8673C7.74256 47.7421 7.75593 47.6129 7.81014 47.4813C8.03263 46.9354 8.62426 47.007 8.94431 47.0415C9.10624 47.062 9.30833 47.0888 9.52638 47.0773C9.86937 47.0607 10.0536 46.9584 10.3329 46.805C10.6 46.658 10.9321 46.4752 11.425 46.3742C12.3966 46.1709 13.2107 46.447 13.4791 46.5378C14.8912 47.0095 15.5874 48.1102 16.3932 49.3848C16.5539 49.6405 17.1054 50.5711 17.4694 51.847C17.732 52.7674 17.6951 53.1765 17.616 53.4808C17.4554 54.1059 17.076 54.4639 16.1127 55.2539C15.1067 56.0811 14.6018 56.4953 14.1682 56.7471C13.159 57.3313 12.5253 57.6983 11.6838 57.6983Z" fill="#F2F2F2"/>
<path d="M0.0839844 116.605C0.0839844 116.823 0.258667 116.998 0.476193 116.998H172.608C172.825 116.998 173 116.823 173 116.605C173 116.387 172.825 116.212 172.608 116.212H0.476193C0.258667 116.212 0.0839844 116.387 0.0839844 116.605Z" fill="#CCCCCC"/>
<path d="M45.949 51.9342C51.6557 51.9342 56.2818 47.296 56.2818 41.5744C56.2818 35.8528 51.6557 31.2146 45.949 31.2146C40.2424 31.2146 35.6162 35.8528 35.6162 41.5744C35.6162 47.296 40.2424 51.9342 45.949 51.9342Z" fill="#FFB6B6"/>
<path d="M126.872 111.176L116.23 100.255L110.737 106L118.666 116.471L126.53 117.373L126.872 111.176Z" fill="#FFB6B6"/>
<path d="M66.109 90.6962C66.7314 90.748 68.7093 91.1453 70.5998 90.1024C71.89 89.3907 72.5517 88.3325 72.7752 87.996C75.5479 83.8209 86.1899 77.3102 95.7409 76.9096C97.9038 76.8189 99.3275 77.0701 100.621 77.7464C102.456 78.7054 103.189 80.079 105.517 83.2969C106.791 85.057 108.2 86.7153 109.489 88.4642C117.036 98.7032 119.896 99.507 119.604 102.79C119.28 106.432 115.362 109.887 112.758 109.488C111.692 109.325 111.279 108.581 109.854 107.076C105.677 102.664 103.948 103.479 100.974 100.099C97.502 96.1529 97.9566 92.8809 96.145 92.7546C94.465 92.6374 93.7511 95.4286 90.1645 99.1366C88.5233 100.833 87.3547 101.612 83.7943 104.088C69.9293 113.732 69.708 114.41 66.9099 115.179C65.6857 115.515 56.9967 117.904 53.9015 114.103C49.0578 108.155 60.5007 90.229 66.109 90.6962Z" fill="#2F2E41"/>
<path d="M123.618 113.644C124.401 113.291 125.316 112.879 125.61 111.932C125.81 111.291 125.695 110.501 125.283 109.954C124.808 109.324 124.105 109.241 124.133 109.13C124.177 108.96 125.839 109.026 127.665 109.673C128.009 109.795 129.57 110.367 131.555 111.921C133.146 113.166 132.932 113.415 133.929 114.133C136.991 116.337 139.862 114.6 141.519 116.667C142.158 117.464 142.431 118.596 142.162 119.512C141.622 121.351 138.994 121.983 137.558 122.31C134.099 123.097 131.481 122.455 128.748 121.993C119.451 120.422 114.228 121.853 113.529 119.693C113.397 119.285 113.612 119.319 114.328 116.32C115.036 113.36 115.013 112.547 115.615 112.31C116.522 111.954 117.131 113.577 119.416 114.132C121.441 114.624 123.111 113.872 123.618 113.644Z" fill="#2F2E41"/>
<path d="M107.952 146.903L105.264 131.875L97.501 133.536L98.1964 146.665L104.198 151.838L107.952 146.903Z" fill="#FFB6B6"/>
<path d="M69.1448 95.7474C69.6307 96.1408 71.0449 97.5831 73.1933 97.7846C74.6595 97.9221 75.7997 97.419 76.1731 97.2663C80.8057 95.3726 93.2579 95.977 101.385 101.023C103.226 102.165 104.263 103.175 104.955 104.463C105.936 106.289 105.773 107.838 105.897 111.812C105.965 113.986 106.203 116.151 106.29 118.324C106.799 131.045 108.716 133.321 106.636 135.872C104.328 138.703 99.1509 139.357 97.2197 137.561C96.4289 136.825 96.5035 135.977 96.1676 133.93C95.1825 127.927 93.2958 127.628 92.7279 123.157C92.0648 117.937 94.2735 115.486 92.8453 114.361C91.5208 113.318 89.3668 115.226 84.3223 116.275C82.0141 116.755 80.6111 116.741 76.2781 116.786C59.4042 116.959 58.8415 117.396 56.0954 116.457C54.894 116.046 46.3666 113.13 45.9342 108.243C45.2575 100.594 64.7658 92.2034 69.1448 95.7474Z" fill="#2F2E41"/>
<path d="M103.879 147.114C104.724 147.263 105.712 147.437 106.486 146.819C107.01 146.4 107.358 145.682 107.323 144.998C107.283 144.209 106.747 143.744 106.833 143.668C106.964 143.552 108.303 144.543 109.451 146.106C109.668 146.401 110.639 147.753 111.411 150.156C112.03 152.082 111.713 152.168 112.137 153.324C113.436 156.871 116.784 157.05 116.998 159.693C117.08 160.713 116.672 161.803 115.936 162.409C114.459 163.627 111.931 162.671 110.559 162.132C107.257 160.836 105.45 158.831 103.447 156.91C96.6346 150.376 91.5115 148.619 92.1424 146.439C92.2618 146.026 92.4202 146.176 94.693 144.098C96.9362 142.047 97.3723 141.361 98.0036 141.504C98.9539 141.72 98.5488 143.406 100.128 145.152C101.528 146.699 103.331 147.017 103.879 147.114Z" fill="#2F2E41"/>
<path d="M47.3573 43.5549C47.7595 42.1122 47.2543 41.5865 47.7692 40.9389C47.7693 40.9389 47.9765 40.6783 49.8292 39.9751C49.2825 36.7952 49.6918 36.2575 49.6918 36.2575C50.1635 35.6378 51.1085 35.488 51.7518 35.5691C53.1123 35.7405 53.3531 36.9736 54.2237 36.946C55.4262 36.9077 56.8686 34.4942 56.4209 32.4023C56.0557 30.6959 54.4811 29.4287 54.0863 29.6486C53.695 29.8666 52.2861 28.9052 51.7518 29.0978C51.3869 29.2294 49.6693 29.0543 49.2799 29.2355C48.8545 29.4333 47.6366 30.6651 47.5201 30.5099C46.7109 29.4314 46.7281 29.0549 46.2586 28.8224C45.4267 28.4106 44.5223 29.1718 42.9628 29.9239C39.754 31.4714 38.8145 30.5483 37.3323 31.8515C36.5836 32.5099 36.1822 33.768 35.4097 36.2575C34.3295 39.739 33.7894 41.4798 34.3111 43.1419C34.8432 44.8369 35.6266 44.468 36.783 46.8594C38.0703 49.5215 37.6266 51.0688 38.8429 51.6785C39.783 52.1496 41.2938 51.8498 41.8641 50.99C42.8407 49.5181 40.3166 47.5269 41.1775 45.2072C41.706 43.7832 43.3363 42.7035 44.336 43.0042C45.4665 43.3441 45.5497 45.3763 46.2586 45.3449C46.8657 45.3179 47.2872 43.8063 47.3573 43.5549Z" fill="#2F2E41"/>
<path d="M39.5293 53.4685C41.6438 51.0914 50.2564 53.5517 51.0648 57.3237C51.3973 58.8752 50.1698 59.5302 50.5155 61.3166C51.0211 63.9294 53.8838 63.7513 56.0086 66.411C59.0253 70.187 55.9175 73.8782 59.3045 80.1797C60.0282 81.5263 60.6382 82.6612 61.9137 83.7596C64.8406 86.2801 67.5644 85.4156 69.0548 87.7525C70.1692 89.5 69.7113 91.6539 69.6041 92.1585C69.1642 94.2274 67.9722 94.7315 67.1322 96.4268C65.7346 99.2473 67.317 101.318 67.4068 104.688C67.5192 108.904 65.2844 114.749 60.8151 116.667C55.794 118.821 49.7381 115.253 46.8077 111.71C45.059 109.596 44.5514 107.646 43.7864 105.239C40.3675 94.481 38.436 95.454 35.8214 86.9264C32.8325 77.1778 32.2449 65.7568 35.8214 62.1427C36.2955 61.6637 37.6001 60.5565 38.4307 58.5629C39.5483 55.8802 38.5828 54.5325 39.5293 53.4685Z" fill="#E6E6E6"/>
<path d="M106.685 62.6618C107.205 66.0842 104.851 69.2925 101.438 69.8137C98.0241 70.3348 94.8242 67.9745 94.3043 64.5522C93.7845 61.1299 96.1387 57.9215 99.5521 57.4004C102.965 56.8792 106.165 59.2395 106.685 62.6618ZM94.956 64.4527C95.4211 67.5149 98.2841 69.6267 101.338 69.1603C104.392 68.694 106.499 65.8235 106.034 62.7613C105.569 59.6991 102.706 57.5874 99.6513 58.0537C96.5971 58.52 94.4909 61.3905 94.956 64.4527Z" fill="#3F3D56"/>
<path d="M97.2873 64.0965C97.5565 65.8694 99.2141 67.092 100.982 66.822C102.751 66.552 103.97 64.8902 103.701 63.1173C103.431 61.3445 101.774 60.1219 100.006 60.3918C98.2374 60.6618 97.018 62.3237 97.2873 64.0965Z" fill="#3F3D56"/>
<path d="M125.486 10.8335C126.265 15.966 131.064 19.5056 136.183 18.724C141.302 17.9423 144.833 13.1311 144.053 7.99858C143.273 2.86608 138.475 -0.673468 133.356 0.108143C128.237 0.889755 124.706 5.70102 125.486 10.8335Z" fill="#007CEE"/>
<path d="M90.4581 62.0272C93.0407 61.4287 95.442 62.2797 95.8217 63.9276C96.2013 65.5755 94.4155 67.3961 91.8319 67.9944C90.8031 68.2476 89.7289 68.2502 88.6989 68.0018L77.7245 70.399L76.79 66.0454L87.6386 63.399C88.4556 62.7226 89.4225 62.2522 90.4581 62.0272Z" fill="#FFB6B6"/>
<path d="M38.0393 65.0409C38.1073 64.736 38.7406 62.0864 41.0961 60.8794C43.8019 59.4928 46.7886 61.0303 47.8362 61.5695C50.2561 62.8152 50.2039 63.971 52.3472 65.684C56.3571 68.8888 61.5138 68.8186 64.3628 68.7798C65.3489 68.7664 68.3945 68.6655 72.214 67.4068C79.6424 64.9588 84.388 61.8869 84.388 61.8869L86.3379 68.5108C86.3379 68.5108 80.5855 74.8844 73.6886 77.7889C66.6141 80.7682 46.4362 80.9648 41.6564 80.7241C41.2447 80.7034 47.7975 81.3375 41.3818 73.6224C39.9184 71.8626 37.2371 68.6383 38.0393 65.0409Z" fill="#E6E6E6"/>
</g>
<defs>
<clipPath id="clip0_137_903">
<rect width="173" height="163" fill="white"/>
</clipPath>
</defs>
</svg>
