<?xml version="1.0" standalone="no"?>
<!DOCTYPE svg PUBLIC "-//W3C//DTD SVG 20010904//EN"
 "http://www.w3.org/TR/2001/REC-SVG-20010904/DTD/svg10.dtd">
<svg version="1.0" xmlns="http://www.w3.org/2000/svg"
 width="700.000000pt" height="700.000000pt" viewBox="0 0 700.000000 700.000000"
 preserveAspectRatio="xMidYMid meet">
<metadata>
Created by potrace 1.14, written by Peter Selinger 2001-2017
</metadata>
<g transform="translate(0.000000,700.000000) scale(0.100000,-0.100000)"
fill="#000000" stroke="none">
<path d="M3240 6989 c-1192 -90 -2244 -773 -2822 -1831 -134 -247 -265 -593
-328 -873 -179 -793 -83 -1617 274 -2335 179 -360 373 -629 665 -921 402 -401
846 -676 1371 -849 933 -308 1950 -212 2800 262 292 163 525 341 771 587 290
291 484 559 661 913 187 377 299 760 350 1203 7 61 12 220 12 355 0 249 -9
371 -45 585 -99 590 -341 1127 -728 1615 -97 123 -399 425 -521 522 -710 564
-1577 834 -2460 767z m728 -1583 c148 -24 262 -60 377 -116 358 -175 544 -519
521 -965 -23 -459 -271 -770 -715 -898 l-84 -24 35 -12 c40 -13 136 -77 187
-125 18 -17 58 -63 87 -103 75 -100 539 -962 558 -1037 28 -107 -5 -194 -88
-235 -41 -21 -64 -25 -132 -24 -103 1 -173 30 -228 94 -21 24 -170 288 -331
586 -161 298 -314 569 -339 601 -77 98 -178 158 -314 187 -58 12 -146 15 -418
15 l-344 0 0 -632 c0 -395 -4 -650 -11 -678 -26 -116 -112 -174 -254 -173
-120 1 -183 33 -228 118 l-22 40 0 1620 0 1620 22 42 c34 63 91 100 183 116
14 3 342 4 730 3 612 -2 719 -5 808 -20z"/>
<path d="M2740 4381 l0 -631 498 0 c392 0 516 3 589 15 353 57 533 265 533
616 0 328 -161 530 -480 601 -89 20 -130 21 -617 25 l-523 5 0 -631z"/>
</g>
</svg>
